<?xml version="1.0" encoding="utf-8"?>
<!-- Generator: Adobe Illustrator 24.0.1, SVG Export Plug-In . SVG Version: 6.00 Build 0)  -->
<svg version="1.1" id="Layer_1" xmlns="http://www.w3.org/2000/svg" xmlns:xlink="http://www.w3.org/1999/xlink" x="0px" y="0px"
	 viewBox="0 0 833.5 1328.1" style="enable-background:new 0 0 833.5 1328.1;" xml:space="preserve">
<style type="text/css">
	.st0{fill:#000100;}
</style>
<g>
	<g>
		<path class="st0" d="M3.2,694.7c-1.8,0-3.2-1.4-3.2-3.2c0-1.8,1.4-3.2,3.2-3.2c1.8,0,3.2,1.4,3.2,3.2C6.4,693.3,5,694.7,3.2,694.7
			z"/>
	</g>
	<g>
		<path class="st0" d="M3.2,743.5c-1.8,0-3.2-1.4-3.2-3.2c0-1.8,1.4-3.2,3.2-3.2c1.8,0,3.2,1.4,3.2,3.2C6.4,742,5,743.5,3.2,743.5z"
			/>
	</g>
	<g>
		<path class="st0" d="M3.2,792.2c-1.8,0-3.2-1.4-3.2-3.2c0-1.8,1.4-3.2,3.2-3.2c1.8,0,3.2,1.4,3.2,3.2C6.4,790.7,5,792.2,3.2,792.2
			z"/>
	</g>
	<g>
		<path class="st0" d="M3.2,840.9c-1.8,0-3.2-1.4-3.2-3.2c0-1.8,1.4-3.2,3.2-3.2c1.8,0,3.2,1.4,3.2,3.2C6.4,839.4,5,840.9,3.2,840.9
			z"/>
	</g>
	<g>
		<path class="st0" d="M3.2,889.6c-1.8,0-3.2-1.4-3.2-3.2c0-1.8,1.4-3.2,3.2-3.2c1.8,0,3.2,1.4,3.2,3.2C6.4,888.2,5,889.6,3.2,889.6
			z"/>
	</g>
	<g>
		<path class="st0" d="M3.2,938.3c-1.8,0-3.2-1.4-3.2-3.2c0-1.8,1.4-3.2,3.2-3.2c1.8,0,3.2,1.4,3.2,3.2C6.4,936.9,5,938.3,3.2,938.3
			z"/>
	</g>
	<g>
		<path class="st0" d="M3.2,987.1c-1.8,0-3.2-1.4-3.2-3.2s1.4-3.2,3.2-3.2c1.8,0,3.2,1.4,3.2,3.2S5,987.1,3.2,987.1z"/>
	</g>
	<g>
		<path class="st0" d="M3.2,1035.8c-1.8,0-3.2-1.4-3.2-3.2s1.4-3.2,3.2-3.2c1.8,0,3.2,1.4,3.2,3.2S5,1035.8,3.2,1035.8z"/>
	</g>
	<g>
		<path class="st0" d="M3.2,1084.5c-1.8,0-3.2-1.4-3.2-3.2c0-1.8,1.4-3.2,3.2-3.2c1.8,0,3.2,1.4,3.2,3.2
			C6.4,1083,5,1084.5,3.2,1084.5z"/>
	</g>
	<g>
		<path class="st0" d="M3.2,1133.2c-1.8,0-3.2-1.4-3.2-3.2c0-1.8,1.4-3.2,3.2-3.2c1.8,0,3.2,1.4,3.2,3.2
			C6.4,1131.8,5,1133.2,3.2,1133.2z"/>
	</g>
	<g>
		<path class="st0" d="M3.2,1181.9c-1.8,0-3.2-1.4-3.2-3.2s1.4-3.2,3.2-3.2c1.8,0,3.2,1.4,3.2,3.2S5,1181.9,3.2,1181.9z"/>
	</g>
	<g>
		<path class="st0" d="M3.2,1230.7c-1.8,0-3.2-1.4-3.2-3.2s1.4-3.2,3.2-3.2c1.8,0,3.2,1.4,3.2,3.2S5,1230.7,3.2,1230.7z"/>
	</g>
	<g>
		<path class="st0" d="M3.2,1279.4c-1.8,0-3.2-1.4-3.2-3.2c0-1.8,1.4-3.2,3.2-3.2c1.8,0,3.2,1.4,3.2,3.2
			C6.4,1277.9,5,1279.4,3.2,1279.4z"/>
	</g>
	<g>
		<path class="st0" d="M3.2,1328.1c-1.8,0-3.2-1.4-3.2-3.2c0-1.8,1.4-3.2,3.2-3.2c1.8,0,3.2,1.4,3.2,3.2
			C6.4,1326.6,5,1328.1,3.2,1328.1z"/>
	</g>
</g>
<g>
	<g>
		<path class="st0" d="M73.3,694.7c-1.8,0-3.2-1.4-3.2-3.2c0-1.8,1.4-3.2,3.2-3.2c1.8,0,3.2,1.4,3.2,3.2
			C76.6,693.3,75.1,694.7,73.3,694.7z"/>
	</g>
	<g>
		<path class="st0" d="M73.3,743.5c-1.8,0-3.2-1.4-3.2-3.2c0-1.8,1.4-3.2,3.2-3.2c1.8,0,3.2,1.4,3.2,3.2
			C76.6,742,75.1,743.5,73.3,743.5z"/>
	</g>
	<g>
		<path class="st0" d="M73.3,792.2c-1.8,0-3.2-1.4-3.2-3.2c0-1.8,1.4-3.2,3.2-3.2c1.8,0,3.2,1.4,3.2,3.2
			C76.6,790.7,75.1,792.2,73.3,792.2z"/>
	</g>
	<g>
		<path class="st0" d="M73.3,840.9c-1.8,0-3.2-1.4-3.2-3.2c0-1.8,1.4-3.2,3.2-3.2c1.8,0,3.2,1.4,3.2,3.2
			C76.6,839.4,75.1,840.9,73.3,840.9z"/>
	</g>
	<g>
		<path class="st0" d="M73.3,889.6c-1.8,0-3.2-1.4-3.2-3.2c0-1.8,1.4-3.2,3.2-3.2c1.8,0,3.2,1.4,3.2,3.2
			C76.6,888.2,75.1,889.6,73.3,889.6z"/>
	</g>
	<g>
		<path class="st0" d="M73.3,938.3c-1.8,0-3.2-1.4-3.2-3.2c0-1.8,1.4-3.2,3.2-3.2c1.8,0,3.2,1.4,3.2,3.2
			C76.6,936.9,75.1,938.3,73.3,938.3z"/>
	</g>
	<g>
		<path class="st0" d="M73.3,987.1c-1.8,0-3.2-1.4-3.2-3.2s1.4-3.2,3.2-3.2c1.8,0,3.2,1.4,3.2,3.2S75.1,987.1,73.3,987.1z"/>
	</g>
	<g>
		<path class="st0" d="M73.3,1035.8c-1.8,0-3.2-1.4-3.2-3.2s1.4-3.2,3.2-3.2c1.8,0,3.2,1.4,3.2,3.2S75.1,1035.8,73.3,1035.8z"/>
	</g>
	<g>
		<path class="st0" d="M73.3,1084.5c-1.8,0-3.2-1.4-3.2-3.2c0-1.8,1.4-3.2,3.2-3.2c1.8,0,3.2,1.4,3.2,3.2
			C76.6,1083,75.1,1084.5,73.3,1084.5z"/>
	</g>
	<g>
		<path class="st0" d="M73.3,1133.2c-1.8,0-3.2-1.4-3.2-3.2c0-1.8,1.4-3.2,3.2-3.2c1.8,0,3.2,1.4,3.2,3.2
			C76.6,1131.8,75.1,1133.2,73.3,1133.2z"/>
	</g>
	<g>
		<path class="st0" d="M73.3,1181.9c-1.8,0-3.2-1.4-3.2-3.2s1.4-3.2,3.2-3.2c1.8,0,3.2,1.4,3.2,3.2S75.1,1181.9,73.3,1181.9z"/>
	</g>
	<g>
		<path class="st0" d="M73.3,1230.7c-1.8,0-3.2-1.4-3.2-3.2s1.4-3.2,3.2-3.2c1.8,0,3.2,1.4,3.2,3.2S75.1,1230.7,73.3,1230.7z"/>
	</g>
	<g>
		<path class="st0" d="M73.3,1279.4c-1.8,0-3.2-1.4-3.2-3.2c0-1.8,1.4-3.2,3.2-3.2c1.8,0,3.2,1.4,3.2,3.2
			C76.6,1277.9,75.1,1279.4,73.3,1279.4z"/>
	</g>
	<g>
		<path class="st0" d="M73.3,1328.1c-1.8,0-3.2-1.4-3.2-3.2c0-1.8,1.4-3.2,3.2-3.2c1.8,0,3.2,1.4,3.2,3.2
			C76.6,1326.6,75.1,1328.1,73.3,1328.1z"/>
	</g>
</g>
<g>
	<g>
		<path class="st0" d="M143.5,694.7c-1.8,0-3.2-1.4-3.2-3.2c0-1.8,1.4-3.2,3.2-3.2c1.8,0,3.2,1.4,3.2,3.2
			C146.7,693.3,145.2,694.7,143.5,694.7z"/>
	</g>
	<g>
		<path class="st0" d="M143.5,743.5c-1.8,0-3.2-1.4-3.2-3.2c0-1.8,1.4-3.2,3.2-3.2c1.8,0,3.2,1.4,3.2,3.2
			C146.7,742,145.2,743.5,143.5,743.5z"/>
	</g>
	<g>
		<path class="st0" d="M143.5,792.2c-1.8,0-3.2-1.4-3.2-3.2c0-1.8,1.4-3.2,3.2-3.2c1.8,0,3.2,1.4,3.2,3.2
			C146.7,790.7,145.2,792.2,143.5,792.2z"/>
	</g>
	<g>
		<path class="st0" d="M143.5,840.9c-1.8,0-3.2-1.4-3.2-3.2c0-1.8,1.4-3.2,3.2-3.2c1.8,0,3.2,1.4,3.2,3.2
			C146.7,839.4,145.2,840.9,143.5,840.9z"/>
	</g>
	<g>
		<path class="st0" d="M143.5,889.6c-1.8,0-3.2-1.4-3.2-3.2c0-1.8,1.4-3.2,3.2-3.2c1.8,0,3.2,1.4,3.2,3.2
			C146.7,888.2,145.2,889.6,143.5,889.6z"/>
	</g>
	<g>
		<path class="st0" d="M143.5,938.3c-1.8,0-3.2-1.4-3.2-3.2c0-1.8,1.4-3.2,3.2-3.2c1.8,0,3.2,1.4,3.2,3.2
			C146.7,936.9,145.2,938.3,143.5,938.3z"/>
	</g>
	<g>
		<path class="st0" d="M143.5,987.1c-1.8,0-3.2-1.4-3.2-3.2s1.4-3.2,3.2-3.2c1.8,0,3.2,1.4,3.2,3.2S145.2,987.1,143.5,987.1z"/>
	</g>
	<g>
		<path class="st0" d="M143.5,1035.8c-1.8,0-3.2-1.4-3.2-3.2s1.4-3.2,3.2-3.2c1.8,0,3.2,1.4,3.2,3.2S145.2,1035.8,143.5,1035.8z"/>
	</g>
	<g>
		<path class="st0" d="M143.5,1084.5c-1.8,0-3.2-1.4-3.2-3.2c0-1.8,1.4-3.2,3.2-3.2c1.8,0,3.2,1.4,3.2,3.2
			C146.7,1083,145.2,1084.5,143.5,1084.5z"/>
	</g>
	<g>
		<path class="st0" d="M143.5,1133.2c-1.8,0-3.2-1.4-3.2-3.2c0-1.8,1.4-3.2,3.2-3.2c1.8,0,3.2,1.4,3.2,3.2
			C146.7,1131.8,145.2,1133.2,143.5,1133.2z"/>
	</g>
	<g>
		<path class="st0" d="M143.5,1181.9c-1.8,0-3.2-1.4-3.2-3.2s1.4-3.2,3.2-3.2c1.8,0,3.2,1.4,3.2,3.2S145.2,1181.9,143.5,1181.9z"/>
	</g>
	<g>
		<path class="st0" d="M143.5,1230.7c-1.8,0-3.2-1.4-3.2-3.2s1.4-3.2,3.2-3.2c1.8,0,3.2,1.4,3.2,3.2S145.2,1230.7,143.5,1230.7z"/>
	</g>
	<g>
		<path class="st0" d="M143.5,1279.4c-1.8,0-3.2-1.4-3.2-3.2c0-1.8,1.4-3.2,3.2-3.2c1.8,0,3.2,1.4,3.2,3.2
			C146.7,1277.9,145.2,1279.4,143.5,1279.4z"/>
	</g>
	<g>
		<path class="st0" d="M143.5,1328.1c-1.8,0-3.2-1.4-3.2-3.2c0-1.8,1.4-3.2,3.2-3.2c1.8,0,3.2,1.4,3.2,3.2
			C146.7,1326.6,145.2,1328.1,143.5,1328.1z"/>
	</g>
</g>
<g>
	<g>
		<path class="st0" d="M213.6,694.7c-1.8,0-3.2-1.4-3.2-3.2c0-1.8,1.4-3.2,3.2-3.2c1.8,0,3.2,1.4,3.2,3.2
			C216.8,693.3,215.4,694.7,213.6,694.7z"/>
	</g>
	<g>
		<path class="st0" d="M213.6,743.5c-1.8,0-3.2-1.4-3.2-3.2c0-1.8,1.4-3.2,3.2-3.2c1.8,0,3.2,1.4,3.2,3.2
			C216.8,742,215.4,743.5,213.6,743.5z"/>
	</g>
	<g>
		<path class="st0" d="M213.6,792.2c-1.8,0-3.2-1.4-3.2-3.2c0-1.8,1.4-3.2,3.2-3.2c1.8,0,3.2,1.4,3.2,3.2
			C216.8,790.7,215.4,792.2,213.6,792.2z"/>
	</g>
	<g>
		<path class="st0" d="M213.6,840.9c-1.8,0-3.2-1.4-3.2-3.2c0-1.8,1.4-3.2,3.2-3.2c1.8,0,3.2,1.4,3.2,3.2
			C216.8,839.4,215.4,840.9,213.6,840.9z"/>
	</g>
	<g>
		<path class="st0" d="M213.6,889.6c-1.8,0-3.2-1.4-3.2-3.2c0-1.8,1.4-3.2,3.2-3.2c1.8,0,3.2,1.4,3.2,3.2
			C216.8,888.2,215.4,889.6,213.6,889.6z"/>
	</g>
	<g>
		<path class="st0" d="M213.6,938.3c-1.8,0-3.2-1.4-3.2-3.2c0-1.8,1.4-3.2,3.2-3.2c1.8,0,3.2,1.4,3.2,3.2
			C216.8,936.9,215.4,938.3,213.6,938.3z"/>
	</g>
	<g>
		<path class="st0" d="M213.6,987.1c-1.8,0-3.2-1.4-3.2-3.2s1.4-3.2,3.2-3.2c1.8,0,3.2,1.4,3.2,3.2S215.4,987.1,213.6,987.1z"/>
	</g>
	<g>
		<path class="st0" d="M213.6,1035.8c-1.8,0-3.2-1.4-3.2-3.2s1.4-3.2,3.2-3.2c1.8,0,3.2,1.4,3.2,3.2S215.4,1035.8,213.6,1035.8z"/>
	</g>
	<g>
		<path class="st0" d="M213.6,1084.5c-1.8,0-3.2-1.4-3.2-3.2c0-1.8,1.4-3.2,3.2-3.2c1.8,0,3.2,1.4,3.2,3.2
			C216.8,1083,215.4,1084.5,213.6,1084.5z"/>
	</g>
	<g>
		<path class="st0" d="M213.6,1133.2c-1.8,0-3.2-1.4-3.2-3.2c0-1.8,1.4-3.2,3.2-3.2c1.8,0,3.2,1.4,3.2,3.2
			C216.8,1131.8,215.4,1133.2,213.6,1133.2z"/>
	</g>
	<g>
		<path class="st0" d="M213.6,1181.9c-1.8,0-3.2-1.4-3.2-3.2s1.4-3.2,3.2-3.2c1.8,0,3.2,1.4,3.2,3.2S215.4,1181.9,213.6,1181.9z"/>
	</g>
	<g>
		<path class="st0" d="M213.6,1230.7c-1.8,0-3.2-1.4-3.2-3.2s1.4-3.2,3.2-3.2c1.8,0,3.2,1.4,3.2,3.2S215.4,1230.7,213.6,1230.7z"/>
	</g>
	<g>
		<path class="st0" d="M213.6,1279.4c-1.8,0-3.2-1.4-3.2-3.2c0-1.8,1.4-3.2,3.2-3.2c1.8,0,3.2,1.4,3.2,3.2
			C216.8,1277.9,215.4,1279.4,213.6,1279.4z"/>
	</g>
	<g>
		<path class="st0" d="M213.6,1328.1c-1.8,0-3.2-1.4-3.2-3.2c0-1.8,1.4-3.2,3.2-3.2c1.8,0,3.2,1.4,3.2,3.2
			C216.8,1326.6,215.4,1328.1,213.6,1328.1z"/>
	</g>
</g>
<g>
	<g>
		<path class="st0" d="M283.7,694.7c-1.8,0-3.2-1.4-3.2-3.2c0-1.8,1.4-3.2,3.2-3.2c1.8,0,3.2,1.4,3.2,3.2
			C286.9,693.3,285.5,694.7,283.7,694.7z"/>
	</g>
	<g>
		<path class="st0" d="M283.7,743.5c-1.8,0-3.2-1.4-3.2-3.2c0-1.8,1.4-3.2,3.2-3.2c1.8,0,3.2,1.4,3.2,3.2
			C286.9,742,285.5,743.5,283.7,743.5z"/>
	</g>
	<g>
		<path class="st0" d="M283.7,792.2c-1.8,0-3.2-1.4-3.2-3.2c0-1.8,1.4-3.2,3.2-3.2c1.8,0,3.2,1.4,3.2,3.2
			C286.9,790.7,285.5,792.2,283.7,792.2z"/>
	</g>
	<g>
		<path class="st0" d="M283.7,840.9c-1.8,0-3.2-1.4-3.2-3.2c0-1.8,1.4-3.2,3.2-3.2c1.8,0,3.2,1.4,3.2,3.2
			C286.9,839.4,285.5,840.9,283.7,840.9z"/>
	</g>
	<g>
		<path class="st0" d="M283.7,889.6c-1.8,0-3.2-1.4-3.2-3.2c0-1.8,1.4-3.2,3.2-3.2c1.8,0,3.2,1.4,3.2,3.2
			C286.9,888.2,285.5,889.6,283.7,889.6z"/>
	</g>
	<g>
		<path class="st0" d="M283.7,938.3c-1.8,0-3.2-1.4-3.2-3.2c0-1.8,1.4-3.2,3.2-3.2c1.8,0,3.2,1.4,3.2,3.2
			C286.9,936.9,285.5,938.3,283.7,938.3z"/>
	</g>
	<g>
		<path class="st0" d="M283.7,987.1c-1.8,0-3.2-1.4-3.2-3.2s1.4-3.2,3.2-3.2c1.8,0,3.2,1.4,3.2,3.2S285.5,987.1,283.7,987.1z"/>
	</g>
	<g>
		<path class="st0" d="M283.7,1035.8c-1.8,0-3.2-1.4-3.2-3.2s1.4-3.2,3.2-3.2c1.8,0,3.2,1.4,3.2,3.2S285.5,1035.8,283.7,1035.8z"/>
	</g>
	<g>
		<path class="st0" d="M283.7,1084.5c-1.8,0-3.2-1.4-3.2-3.2c0-1.8,1.4-3.2,3.2-3.2c1.8,0,3.2,1.4,3.2,3.2
			C286.9,1083,285.5,1084.5,283.7,1084.5z"/>
	</g>
	<g>
		<path class="st0" d="M283.7,1133.2c-1.8,0-3.2-1.4-3.2-3.2c0-1.8,1.4-3.2,3.2-3.2c1.8,0,3.2,1.4,3.2,3.2
			C286.9,1131.8,285.5,1133.2,283.7,1133.2z"/>
	</g>
	<g>
		<path class="st0" d="M283.7,1181.9c-1.8,0-3.2-1.4-3.2-3.2s1.4-3.2,3.2-3.2c1.8,0,3.2,1.4,3.2,3.2S285.5,1181.9,283.7,1181.9z"/>
	</g>
	<g>
		<path class="st0" d="M283.7,1230.7c-1.8,0-3.2-1.4-3.2-3.2s1.4-3.2,3.2-3.2c1.8,0,3.2,1.4,3.2,3.2S285.5,1230.7,283.7,1230.7z"/>
	</g>
	<g>
		<path class="st0" d="M283.7,1279.4c-1.8,0-3.2-1.4-3.2-3.2c0-1.8,1.4-3.2,3.2-3.2c1.8,0,3.2,1.4,3.2,3.2
			C286.9,1277.9,285.5,1279.4,283.7,1279.4z"/>
	</g>
	<g>
		<path class="st0" d="M283.7,1328.1c-1.8,0-3.2-1.4-3.2-3.2c0-1.8,1.4-3.2,3.2-3.2c1.8,0,3.2,1.4,3.2,3.2
			C286.9,1326.6,285.5,1328.1,283.7,1328.1z"/>
	</g>
</g>
<g>
	<g>
		<path class="st0" d="M353.8,694.7c-1.8,0-3.2-1.4-3.2-3.2c0-1.8,1.4-3.2,3.2-3.2c1.8,0,3.2,1.4,3.2,3.2
			C357,693.3,355.6,694.7,353.8,694.7z"/>
	</g>
	<g>
		<path class="st0" d="M353.8,743.5c-1.8,0-3.2-1.4-3.2-3.2c0-1.8,1.4-3.2,3.2-3.2c1.8,0,3.2,1.4,3.2,3.2
			C357,742,355.6,743.5,353.8,743.5z"/>
	</g>
	<g>
		<path class="st0" d="M353.8,792.2c-1.8,0-3.2-1.4-3.2-3.2c0-1.8,1.4-3.2,3.2-3.2c1.8,0,3.2,1.4,3.2,3.2
			C357,790.7,355.6,792.2,353.8,792.2z"/>
	</g>
	<g>
		<path class="st0" d="M353.8,840.9c-1.8,0-3.2-1.4-3.2-3.2c0-1.8,1.4-3.2,3.2-3.2c1.8,0,3.2,1.4,3.2,3.2
			C357,839.4,355.6,840.9,353.8,840.9z"/>
	</g>
	<g>
		<path class="st0" d="M353.8,889.6c-1.8,0-3.2-1.4-3.2-3.2c0-1.8,1.4-3.2,3.2-3.2c1.8,0,3.2,1.4,3.2,3.2
			C357,888.2,355.6,889.6,353.8,889.6z"/>
	</g>
	<g>
		<path class="st0" d="M353.8,938.3c-1.8,0-3.2-1.4-3.2-3.2c0-1.8,1.4-3.2,3.2-3.2c1.8,0,3.2,1.4,3.2,3.2
			C357,936.9,355.6,938.3,353.8,938.3z"/>
	</g>
	<g>
		<path class="st0" d="M353.8,987.1c-1.8,0-3.2-1.4-3.2-3.2s1.4-3.2,3.2-3.2c1.8,0,3.2,1.4,3.2,3.2S355.6,987.1,353.8,987.1z"/>
	</g>
	<g>
		<path class="st0" d="M353.8,1035.8c-1.8,0-3.2-1.4-3.2-3.2s1.4-3.2,3.2-3.2c1.8,0,3.2,1.4,3.2,3.2S355.6,1035.8,353.8,1035.8z"/>
	</g>
	<g>
		<path class="st0" d="M353.8,1084.5c-1.8,0-3.2-1.4-3.2-3.2c0-1.8,1.4-3.2,3.2-3.2c1.8,0,3.2,1.4,3.2,3.2
			C357,1083,355.6,1084.5,353.8,1084.5z"/>
	</g>
	<g>
		<path class="st0" d="M353.8,1133.2c-1.8,0-3.2-1.4-3.2-3.2c0-1.8,1.4-3.2,3.2-3.2c1.8,0,3.2,1.4,3.2,3.2
			C357,1131.8,355.6,1133.2,353.8,1133.2z"/>
	</g>
	<g>
		<path class="st0" d="M353.8,1181.9c-1.8,0-3.2-1.4-3.2-3.2s1.4-3.2,3.2-3.2c1.8,0,3.2,1.4,3.2,3.2S355.6,1181.9,353.8,1181.9z"/>
	</g>
	<g>
		<path class="st0" d="M353.8,1230.7c-1.8,0-3.2-1.4-3.2-3.2s1.4-3.2,3.2-3.2c1.8,0,3.2,1.4,3.2,3.2S355.6,1230.7,353.8,1230.7z"/>
	</g>
	<g>
		<path class="st0" d="M353.8,1279.4c-1.8,0-3.2-1.4-3.2-3.2c0-1.8,1.4-3.2,3.2-3.2c1.8,0,3.2,1.4,3.2,3.2
			C357,1277.9,355.6,1279.4,353.8,1279.4z"/>
	</g>
	<g>
		<path class="st0" d="M353.8,1328.1c-1.8,0-3.2-1.4-3.2-3.2c0-1.8,1.4-3.2,3.2-3.2c1.8,0,3.2,1.4,3.2,3.2
			C357,1326.6,355.6,1328.1,353.8,1328.1z"/>
	</g>
</g>
<g>
	<g>
		<path class="st0" d="M423.9,694.7c-1.8,0-3.2-1.4-3.2-3.2c0-1.8,1.4-3.2,3.2-3.2c1.8,0,3.2,1.4,3.2,3.2
			C427.2,693.3,425.7,694.7,423.9,694.7z"/>
	</g>
	<g>
		<path class="st0" d="M423.9,743.5c-1.8,0-3.2-1.4-3.2-3.2c0-1.8,1.4-3.2,3.2-3.2c1.8,0,3.2,1.4,3.2,3.2
			C427.2,742,425.7,743.5,423.9,743.5z"/>
	</g>
	<g>
		<path class="st0" d="M423.9,792.2c-1.8,0-3.2-1.4-3.2-3.2c0-1.8,1.4-3.2,3.2-3.2c1.8,0,3.2,1.4,3.2,3.2
			C427.2,790.7,425.7,792.2,423.9,792.2z"/>
	</g>
	<g>
		<path class="st0" d="M423.9,840.9c-1.8,0-3.2-1.4-3.2-3.2c0-1.8,1.4-3.2,3.2-3.2c1.8,0,3.2,1.4,3.2,3.2
			C427.2,839.4,425.7,840.9,423.9,840.9z"/>
	</g>
	<g>
		<path class="st0" d="M423.9,889.6c-1.8,0-3.2-1.4-3.2-3.2c0-1.8,1.4-3.2,3.2-3.2c1.8,0,3.2,1.4,3.2,3.2
			C427.2,888.2,425.7,889.6,423.9,889.6z"/>
	</g>
	<g>
		<path class="st0" d="M423.9,938.3c-1.8,0-3.2-1.4-3.2-3.2c0-1.8,1.4-3.2,3.2-3.2c1.8,0,3.2,1.4,3.2,3.2
			C427.2,936.9,425.7,938.3,423.9,938.3z"/>
	</g>
	<g>
		<path class="st0" d="M423.9,987.1c-1.8,0-3.2-1.4-3.2-3.2s1.4-3.2,3.2-3.2c1.8,0,3.2,1.4,3.2,3.2S425.7,987.1,423.9,987.1z"/>
	</g>
	<g>
		<path class="st0" d="M423.9,1035.8c-1.8,0-3.2-1.4-3.2-3.2s1.4-3.2,3.2-3.2c1.8,0,3.2,1.4,3.2,3.2S425.7,1035.8,423.9,1035.8z"/>
	</g>
	<g>
		<path class="st0" d="M423.9,1084.5c-1.8,0-3.2-1.4-3.2-3.2c0-1.8,1.4-3.2,3.2-3.2c1.8,0,3.2,1.4,3.2,3.2
			C427.2,1083,425.7,1084.5,423.9,1084.5z"/>
	</g>
	<g>
		<path class="st0" d="M423.9,1133.2c-1.8,0-3.2-1.4-3.2-3.2c0-1.8,1.4-3.2,3.2-3.2c1.8,0,3.2,1.4,3.2,3.2
			C427.2,1131.8,425.7,1133.2,423.9,1133.2z"/>
	</g>
	<g>
		<path class="st0" d="M423.9,1181.9c-1.8,0-3.2-1.4-3.2-3.2s1.4-3.2,3.2-3.2c1.8,0,3.2,1.4,3.2,3.2S425.7,1181.9,423.9,1181.9z"/>
	</g>
	<g>
		<path class="st0" d="M423.9,1230.7c-1.8,0-3.2-1.4-3.2-3.2s1.4-3.2,3.2-3.2c1.8,0,3.2,1.4,3.2,3.2S425.7,1230.7,423.9,1230.7z"/>
	</g>
	<g>
		<path class="st0" d="M423.9,1279.4c-1.8,0-3.2-1.4-3.2-3.2c0-1.8,1.4-3.2,3.2-3.2c1.8,0,3.2,1.4,3.2,3.2
			C427.2,1277.9,425.7,1279.4,423.9,1279.4z"/>
	</g>
	<g>
		<path class="st0" d="M423.9,1328.1c-1.8,0-3.2-1.4-3.2-3.2c0-1.8,1.4-3.2,3.2-3.2c1.8,0,3.2,1.4,3.2,3.2
			C427.2,1326.6,425.7,1328.1,423.9,1328.1z"/>
	</g>
</g>
<g>
	<g>
		<path class="st0" d="M489.2,694.7c-1.8,0-3.2-1.4-3.2-3.2c0-1.8,1.4-3.2,3.2-3.2c1.8,0,3.2,1.4,3.2,3.2
			C492.4,693.3,491,694.7,489.2,694.7z"/>
	</g>
	<g>
		<path class="st0" d="M489.2,743.5c-1.8,0-3.2-1.4-3.2-3.2c0-1.8,1.4-3.2,3.2-3.2c1.8,0,3.2,1.4,3.2,3.2
			C492.4,742,491,743.5,489.2,743.5z"/>
	</g>
	<g>
		<path class="st0" d="M489.2,792.2c-1.8,0-3.2-1.4-3.2-3.2c0-1.8,1.4-3.2,3.2-3.2c1.8,0,3.2,1.4,3.2,3.2
			C492.4,790.7,491,792.2,489.2,792.2z"/>
	</g>
	<g>
		<path class="st0" d="M489.2,840.9c-1.8,0-3.2-1.4-3.2-3.2c0-1.8,1.4-3.2,3.2-3.2c1.8,0,3.2,1.4,3.2,3.2
			C492.4,839.4,491,840.9,489.2,840.9z"/>
	</g>
	<g>
		<path class="st0" d="M489.2,889.6c-1.8,0-3.2-1.4-3.2-3.2c0-1.8,1.4-3.2,3.2-3.2c1.8,0,3.2,1.4,3.2,3.2
			C492.4,888.2,491,889.6,489.2,889.6z"/>
	</g>
	<g>
		<path class="st0" d="M489.2,938.3c-1.8,0-3.2-1.4-3.2-3.2c0-1.8,1.4-3.2,3.2-3.2c1.8,0,3.2,1.4,3.2,3.2
			C492.4,936.9,491,938.3,489.2,938.3z"/>
	</g>
	<g>
		<path class="st0" d="M489.2,987.1c-1.8,0-3.2-1.4-3.2-3.2s1.4-3.2,3.2-3.2c1.8,0,3.2,1.4,3.2,3.2S491,987.1,489.2,987.1z"/>
	</g>
	<g>
		<path class="st0" d="M489.2,1035.8c-1.8,0-3.2-1.4-3.2-3.2s1.4-3.2,3.2-3.2c1.8,0,3.2,1.4,3.2,3.2S491,1035.8,489.2,1035.8z"/>
	</g>
	<g>
		<path class="st0" d="M489.2,1084.5c-1.8,0-3.2-1.4-3.2-3.2c0-1.8,1.4-3.2,3.2-3.2c1.8,0,3.2,1.4,3.2,3.2
			C492.4,1083,491,1084.5,489.2,1084.5z"/>
	</g>
	<g>
		<path class="st0" d="M489.2,1133.2c-1.8,0-3.2-1.4-3.2-3.2c0-1.8,1.4-3.2,3.2-3.2c1.8,0,3.2,1.4,3.2,3.2
			C492.4,1131.8,491,1133.2,489.2,1133.2z"/>
	</g>
	<g>
		<path class="st0" d="M489.2,1181.9c-1.8,0-3.2-1.4-3.2-3.2s1.4-3.2,3.2-3.2c1.8,0,3.2,1.4,3.2,3.2S491,1181.9,489.2,1181.9z"/>
	</g>
	<g>
		<path class="st0" d="M489.2,1230.7c-1.8,0-3.2-1.4-3.2-3.2s1.4-3.2,3.2-3.2c1.8,0,3.2,1.4,3.2,3.2S491,1230.7,489.2,1230.7z"/>
	</g>
	<g>
		<path class="st0" d="M489.2,1279.4c-1.8,0-3.2-1.4-3.2-3.2c0-1.8,1.4-3.2,3.2-3.2c1.8,0,3.2,1.4,3.2,3.2
			C492.4,1277.9,491,1279.4,489.2,1279.4z"/>
	</g>
	<g>
		<path class="st0" d="M489.2,1328.1c-1.8,0-3.2-1.4-3.2-3.2c0-1.8,1.4-3.2,3.2-3.2c1.8,0,3.2,1.4,3.2,3.2
			C492.4,1326.6,491,1328.1,489.2,1328.1z"/>
	</g>
</g>
<g>
	<g>
		<path class="st0" d="M558.3,694.7c-1.8,0-3.2-1.4-3.2-3.2c0-1.8,1.4-3.2,3.2-3.2s3.2,1.4,3.2,3.2
			C561.5,693.3,560.1,694.7,558.3,694.7z"/>
	</g>
	<g>
		<path class="st0" d="M558.3,743.5c-1.8,0-3.2-1.4-3.2-3.2c0-1.8,1.4-3.2,3.2-3.2s3.2,1.4,3.2,3.2
			C561.5,742,560.1,743.5,558.3,743.5z"/>
	</g>
	<g>
		<path class="st0" d="M558.3,792.2c-1.8,0-3.2-1.4-3.2-3.2c0-1.8,1.4-3.2,3.2-3.2s3.2,1.4,3.2,3.2
			C561.5,790.7,560.1,792.2,558.3,792.2z"/>
	</g>
	<g>
		<path class="st0" d="M558.3,840.9c-1.8,0-3.2-1.4-3.2-3.2c0-1.8,1.4-3.2,3.2-3.2s3.2,1.4,3.2,3.2
			C561.5,839.4,560.1,840.9,558.3,840.9z"/>
	</g>
	<g>
		<path class="st0" d="M558.3,889.6c-1.8,0-3.2-1.4-3.2-3.2c0-1.8,1.4-3.2,3.2-3.2s3.2,1.4,3.2,3.2
			C561.5,888.2,560.1,889.6,558.3,889.6z"/>
	</g>
	<g>
		<path class="st0" d="M558.3,938.3c-1.8,0-3.2-1.4-3.2-3.2c0-1.8,1.4-3.2,3.2-3.2s3.2,1.4,3.2,3.2
			C561.5,936.9,560.1,938.3,558.3,938.3z"/>
	</g>
	<g>
		<path class="st0" d="M558.3,987.1c-1.8,0-3.2-1.4-3.2-3.2s1.4-3.2,3.2-3.2s3.2,1.4,3.2,3.2S560.1,987.1,558.3,987.1z"/>
	</g>
	<g>
		<path class="st0" d="M558.3,1035.8c-1.8,0-3.2-1.4-3.2-3.2s1.4-3.2,3.2-3.2s3.2,1.4,3.2,3.2S560.1,1035.8,558.3,1035.8z"/>
	</g>
	<g>
		<path class="st0" d="M558.3,1084.5c-1.8,0-3.2-1.4-3.2-3.2c0-1.8,1.4-3.2,3.2-3.2s3.2,1.4,3.2,3.2
			C561.5,1083,560.1,1084.5,558.3,1084.5z"/>
	</g>
	<g>
		<path class="st0" d="M558.3,1133.2c-1.8,0-3.2-1.4-3.2-3.2c0-1.8,1.4-3.2,3.2-3.2s3.2,1.4,3.2,3.2
			C561.5,1131.8,560.1,1133.2,558.3,1133.2z"/>
	</g>
	<g>
		<path class="st0" d="M558.3,1181.9c-1.8,0-3.2-1.4-3.2-3.2s1.4-3.2,3.2-3.2s3.2,1.4,3.2,3.2S560.1,1181.9,558.3,1181.9z"/>
	</g>
	<g>
		<path class="st0" d="M558.3,1230.7c-1.8,0-3.2-1.4-3.2-3.2s1.4-3.2,3.2-3.2s3.2,1.4,3.2,3.2S560.1,1230.7,558.3,1230.7z"/>
	</g>
	<g>
		<path class="st0" d="M558.3,1279.4c-1.8,0-3.2-1.4-3.2-3.2c0-1.8,1.4-3.2,3.2-3.2s3.2,1.4,3.2,3.2
			C561.5,1277.9,560.1,1279.4,558.3,1279.4z"/>
	</g>
	<g>
		<path class="st0" d="M558.3,1328.1c-1.8,0-3.2-1.4-3.2-3.2c0-1.8,1.4-3.2,3.2-3.2s3.2,1.4,3.2,3.2
			C561.5,1326.6,560.1,1328.1,558.3,1328.1z"/>
	</g>
</g>
<g>
	<g>
		<path class="st0" d="M625.7,694.7c-1.8,0-3.2-1.4-3.2-3.2c0-1.8,1.4-3.2,3.2-3.2c1.8,0,3.2,1.4,3.2,3.2
			C628.9,693.3,627.5,694.7,625.7,694.7z"/>
	</g>
	<g>
		<path class="st0" d="M625.7,743.5c-1.8,0-3.2-1.4-3.2-3.2c0-1.8,1.4-3.2,3.2-3.2c1.8,0,3.2,1.4,3.2,3.2
			C628.9,742,627.5,743.5,625.7,743.5z"/>
	</g>
	<g>
		<path class="st0" d="M625.7,792.2c-1.8,0-3.2-1.4-3.2-3.2c0-1.8,1.4-3.2,3.2-3.2c1.8,0,3.2,1.4,3.2,3.2
			C628.9,790.7,627.5,792.2,625.7,792.2z"/>
	</g>
	<g>
		<path class="st0" d="M625.7,840.9c-1.8,0-3.2-1.4-3.2-3.2c0-1.8,1.4-3.2,3.2-3.2c1.8,0,3.2,1.4,3.2,3.2
			C628.9,839.4,627.5,840.9,625.7,840.9z"/>
	</g>
	<g>
		<path class="st0" d="M625.7,889.6c-1.8,0-3.2-1.4-3.2-3.2c0-1.8,1.4-3.2,3.2-3.2c1.8,0,3.2,1.4,3.2,3.2
			C628.9,888.2,627.5,889.6,625.7,889.6z"/>
	</g>
	<g>
		<path class="st0" d="M625.7,938.3c-1.8,0-3.2-1.4-3.2-3.2c0-1.8,1.4-3.2,3.2-3.2c1.8,0,3.2,1.4,3.2,3.2
			C628.9,936.9,627.5,938.3,625.7,938.3z"/>
	</g>
	<g>
		<path class="st0" d="M625.7,987.1c-1.8,0-3.2-1.4-3.2-3.2s1.4-3.2,3.2-3.2c1.8,0,3.2,1.4,3.2,3.2S627.5,987.1,625.7,987.1z"/>
	</g>
	<g>
		<path class="st0" d="M625.7,1035.8c-1.8,0-3.2-1.4-3.2-3.2s1.4-3.2,3.2-3.2c1.8,0,3.2,1.4,3.2,3.2S627.5,1035.8,625.7,1035.8z"/>
	</g>
	<g>
		<path class="st0" d="M625.7,1084.5c-1.8,0-3.2-1.4-3.2-3.2c0-1.8,1.4-3.2,3.2-3.2c1.8,0,3.2,1.4,3.2,3.2
			C628.9,1083,627.5,1084.5,625.7,1084.5z"/>
	</g>
	<g>
		<path class="st0" d="M625.7,1133.2c-1.8,0-3.2-1.4-3.2-3.2c0-1.8,1.4-3.2,3.2-3.2c1.8,0,3.2,1.4,3.2,3.2
			C628.9,1131.8,627.5,1133.2,625.7,1133.2z"/>
	</g>
	<g>
		<path class="st0" d="M625.7,1181.9c-1.8,0-3.2-1.4-3.2-3.2s1.4-3.2,3.2-3.2c1.8,0,3.2,1.4,3.2,3.2S627.5,1181.9,625.7,1181.9z"/>
	</g>
	<g>
		<path class="st0" d="M625.7,1230.7c-1.8,0-3.2-1.4-3.2-3.2s1.4-3.2,3.2-3.2c1.8,0,3.2,1.4,3.2,3.2S627.5,1230.7,625.7,1230.7z"/>
	</g>
	<g>
		<path class="st0" d="M625.7,1279.4c-1.8,0-3.2-1.4-3.2-3.2c0-1.8,1.4-3.2,3.2-3.2c1.8,0,3.2,1.4,3.2,3.2
			C628.9,1277.9,627.5,1279.4,625.7,1279.4z"/>
	</g>
	<g>
		<path class="st0" d="M625.7,1328.1c-1.8,0-3.2-1.4-3.2-3.2c0-1.8,1.4-3.2,3.2-3.2c1.8,0,3.2,1.4,3.2,3.2
			C628.9,1326.6,627.5,1328.1,625.7,1328.1z"/>
	</g>
</g>
<g>
	<g>
		<path class="st0" d="M695.8,694.7c-1.8,0-3.2-1.4-3.2-3.2c0-1.8,1.4-3.2,3.2-3.2c1.8,0,3.2,1.4,3.2,3.2
			C699.1,693.3,697.6,694.7,695.8,694.7z"/>
	</g>
	<g>
		<path class="st0" d="M695.8,743.5c-1.8,0-3.2-1.4-3.2-3.2c0-1.8,1.4-3.2,3.2-3.2c1.8,0,3.2,1.4,3.2,3.2
			C699.1,742,697.6,743.5,695.8,743.5z"/>
	</g>
	<g>
		<path class="st0" d="M695.8,792.2c-1.8,0-3.2-1.4-3.2-3.2c0-1.8,1.4-3.2,3.2-3.2c1.8,0,3.2,1.4,3.2,3.2
			C699.1,790.7,697.6,792.2,695.8,792.2z"/>
	</g>
	<g>
		<path class="st0" d="M695.8,840.9c-1.8,0-3.2-1.4-3.2-3.2c0-1.8,1.4-3.2,3.2-3.2c1.8,0,3.2,1.4,3.2,3.2
			C699.1,839.4,697.6,840.9,695.8,840.9z"/>
	</g>
	<g>
		<path class="st0" d="M695.8,889.6c-1.8,0-3.2-1.4-3.2-3.2c0-1.8,1.4-3.2,3.2-3.2c1.8,0,3.2,1.4,3.2,3.2
			C699.1,888.2,697.6,889.6,695.8,889.6z"/>
	</g>
	<g>
		<path class="st0" d="M695.8,938.3c-1.8,0-3.2-1.4-3.2-3.2c0-1.8,1.4-3.2,3.2-3.2c1.8,0,3.2,1.4,3.2,3.2
			C699.1,936.9,697.6,938.3,695.8,938.3z"/>
	</g>
	<g>
		<path class="st0" d="M695.8,987.1c-1.8,0-3.2-1.4-3.2-3.2s1.4-3.2,3.2-3.2c1.8,0,3.2,1.4,3.2,3.2S697.6,987.1,695.8,987.1z"/>
	</g>
	<g>
		<path class="st0" d="M695.8,1035.8c-1.8,0-3.2-1.4-3.2-3.2s1.4-3.2,3.2-3.2c1.8,0,3.2,1.4,3.2,3.2S697.6,1035.8,695.8,1035.8z"/>
	</g>
	<g>
		<path class="st0" d="M695.8,1084.5c-1.8,0-3.2-1.4-3.2-3.2c0-1.8,1.4-3.2,3.2-3.2c1.8,0,3.2,1.4,3.2,3.2
			C699.1,1083,697.6,1084.5,695.8,1084.5z"/>
	</g>
	<g>
		<path class="st0" d="M695.8,1133.2c-1.8,0-3.2-1.4-3.2-3.2c0-1.8,1.4-3.2,3.2-3.2c1.8,0,3.2,1.4,3.2,3.2
			C699.1,1131.8,697.6,1133.2,695.8,1133.2z"/>
	</g>
	<g>
		<path class="st0" d="M695.8,1181.9c-1.8,0-3.2-1.4-3.2-3.2s1.4-3.2,3.2-3.2c1.8,0,3.2,1.4,3.2,3.2S697.6,1181.9,695.8,1181.9z"/>
	</g>
	<g>
		<path class="st0" d="M695.8,1230.7c-1.8,0-3.2-1.4-3.2-3.2s1.4-3.2,3.2-3.2c1.8,0,3.2,1.4,3.2,3.2S697.6,1230.7,695.8,1230.7z"/>
	</g>
	<g>
		<path class="st0" d="M695.8,1279.4c-1.8,0-3.2-1.4-3.2-3.2c0-1.8,1.4-3.2,3.2-3.2c1.8,0,3.2,1.4,3.2,3.2
			C699.1,1277.9,697.6,1279.4,695.8,1279.4z"/>
	</g>
	<g>
		<path class="st0" d="M695.8,1328.1c-1.8,0-3.2-1.4-3.2-3.2c0-1.8,1.4-3.2,3.2-3.2c1.8,0,3.2,1.4,3.2,3.2
			C699.1,1326.6,697.6,1328.1,695.8,1328.1z"/>
	</g>
</g>
<g>
	<g>
		<path class="st0" d="M761.1,694.7c-1.8,0-3.2-1.4-3.2-3.2c0-1.8,1.4-3.2,3.2-3.2c1.8,0,3.2,1.4,3.2,3.2
			C764.3,693.3,762.9,694.7,761.1,694.7z"/>
	</g>
	<g>
		<path class="st0" d="M761.1,743.5c-1.8,0-3.2-1.4-3.2-3.2c0-1.8,1.4-3.2,3.2-3.2c1.8,0,3.2,1.4,3.2,3.2
			C764.3,742,762.9,743.5,761.1,743.5z"/>
	</g>
	<g>
		<path class="st0" d="M761.1,792.2c-1.8,0-3.2-1.4-3.2-3.2c0-1.8,1.4-3.2,3.2-3.2c1.8,0,3.2,1.4,3.2,3.2
			C764.3,790.7,762.9,792.2,761.1,792.2z"/>
	</g>
	<g>
		<path class="st0" d="M761.1,840.9c-1.8,0-3.2-1.4-3.2-3.2c0-1.8,1.4-3.2,3.2-3.2c1.8,0,3.2,1.4,3.2,3.2
			C764.3,839.4,762.9,840.9,761.1,840.9z"/>
	</g>
	<g>
		<path class="st0" d="M761.1,889.6c-1.8,0-3.2-1.4-3.2-3.2c0-1.8,1.4-3.2,3.2-3.2c1.8,0,3.2,1.4,3.2,3.2
			C764.3,888.2,762.9,889.6,761.1,889.6z"/>
	</g>
	<g>
		<path class="st0" d="M761.1,938.3c-1.8,0-3.2-1.4-3.2-3.2c0-1.8,1.4-3.2,3.2-3.2c1.8,0,3.2,1.4,3.2,3.2
			C764.3,936.9,762.9,938.3,761.1,938.3z"/>
	</g>
	<g>
		<path class="st0" d="M761.1,987.1c-1.8,0-3.2-1.4-3.2-3.2s1.4-3.2,3.2-3.2c1.8,0,3.2,1.4,3.2,3.2S762.9,987.1,761.1,987.1z"/>
	</g>
	<g>
		<path class="st0" d="M761.1,1035.8c-1.8,0-3.2-1.4-3.2-3.2s1.4-3.2,3.2-3.2c1.8,0,3.2,1.4,3.2,3.2S762.9,1035.8,761.1,1035.8z"/>
	</g>
	<g>
		<path class="st0" d="M761.1,1084.5c-1.8,0-3.2-1.4-3.2-3.2c0-1.8,1.4-3.2,3.2-3.2c1.8,0,3.2,1.4,3.2,3.2
			C764.3,1083,762.9,1084.5,761.1,1084.5z"/>
	</g>
	<g>
		<path class="st0" d="M761.1,1133.2c-1.8,0-3.2-1.4-3.2-3.2c0-1.8,1.4-3.2,3.2-3.2c1.8,0,3.2,1.4,3.2,3.2
			C764.3,1131.8,762.9,1133.2,761.1,1133.2z"/>
	</g>
	<g>
		<path class="st0" d="M761.1,1181.9c-1.8,0-3.2-1.4-3.2-3.2s1.4-3.2,3.2-3.2c1.8,0,3.2,1.4,3.2,3.2S762.9,1181.9,761.1,1181.9z"/>
	</g>
	<g>
		<path class="st0" d="M761.1,1230.7c-1.8,0-3.2-1.4-3.2-3.2s1.4-3.2,3.2-3.2c1.8,0,3.2,1.4,3.2,3.2S762.9,1230.7,761.1,1230.7z"/>
	</g>
	<g>
		<path class="st0" d="M761.1,1279.4c-1.8,0-3.2-1.4-3.2-3.2c0-1.8,1.4-3.2,3.2-3.2c1.8,0,3.2,1.4,3.2,3.2
			C764.3,1277.9,762.9,1279.4,761.1,1279.4z"/>
	</g>
	<g>
		<path class="st0" d="M761.1,1328.1c-1.8,0-3.2-1.4-3.2-3.2c0-1.8,1.4-3.2,3.2-3.2c1.8,0,3.2,1.4,3.2,3.2
			C764.3,1326.6,762.9,1328.1,761.1,1328.1z"/>
	</g>
</g>
<g>
	<g>
		<path class="st0" d="M830.2,694.7c-1.8,0-3.2-1.4-3.2-3.2c0-1.8,1.4-3.2,3.2-3.2c1.8,0,3.2,1.4,3.2,3.2
			C833.5,693.3,832,694.7,830.2,694.7z"/>
	</g>
	<g>
		<path class="st0" d="M830.2,743.5c-1.8,0-3.2-1.4-3.2-3.2c0-1.8,1.4-3.2,3.2-3.2c1.8,0,3.2,1.4,3.2,3.2
			C833.5,742,832,743.5,830.2,743.5z"/>
	</g>
	<g>
		<path class="st0" d="M830.2,792.2c-1.8,0-3.2-1.4-3.2-3.2c0-1.8,1.4-3.2,3.2-3.2c1.8,0,3.2,1.4,3.2,3.2
			C833.5,790.7,832,792.2,830.2,792.2z"/>
	</g>
	<g>
		<path class="st0" d="M830.2,840.9c-1.8,0-3.2-1.4-3.2-3.2c0-1.8,1.4-3.2,3.2-3.2c1.8,0,3.2,1.4,3.2,3.2
			C833.5,839.4,832,840.9,830.2,840.9z"/>
	</g>
	<g>
		<path class="st0" d="M830.2,889.6c-1.8,0-3.2-1.4-3.2-3.2c0-1.8,1.4-3.2,3.2-3.2c1.8,0,3.2,1.4,3.2,3.2
			C833.5,888.2,832,889.6,830.2,889.6z"/>
	</g>
	<g>
		<path class="st0" d="M830.2,938.3c-1.8,0-3.2-1.4-3.2-3.2c0-1.8,1.4-3.2,3.2-3.2c1.8,0,3.2,1.4,3.2,3.2
			C833.5,936.9,832,938.3,830.2,938.3z"/>
	</g>
	<g>
		<path class="st0" d="M830.2,987.1c-1.8,0-3.2-1.4-3.2-3.2s1.4-3.2,3.2-3.2c1.8,0,3.2,1.4,3.2,3.2S832,987.1,830.2,987.1z"/>
	</g>
	<g>
		<path class="st0" d="M830.2,1035.8c-1.8,0-3.2-1.4-3.2-3.2s1.4-3.2,3.2-3.2c1.8,0,3.2,1.4,3.2,3.2S832,1035.8,830.2,1035.8z"/>
	</g>
	<g>
		<path class="st0" d="M830.2,1084.5c-1.8,0-3.2-1.4-3.2-3.2c0-1.8,1.4-3.2,3.2-3.2c1.8,0,3.2,1.4,3.2,3.2
			C833.5,1083,832,1084.5,830.2,1084.5z"/>
	</g>
	<g>
		<path class="st0" d="M830.2,1133.2c-1.8,0-3.2-1.4-3.2-3.2c0-1.8,1.4-3.2,3.2-3.2c1.8,0,3.2,1.4,3.2,3.2
			C833.5,1131.8,832,1133.2,830.2,1133.2z"/>
	</g>
	<g>
		<path class="st0" d="M830.2,1181.9c-1.8,0-3.2-1.4-3.2-3.2s1.4-3.2,3.2-3.2c1.8,0,3.2,1.4,3.2,3.2S832,1181.9,830.2,1181.9z"/>
	</g>
	<g>
		<path class="st0" d="M830.2,1230.7c-1.8,0-3.2-1.4-3.2-3.2s1.4-3.2,3.2-3.2c1.8,0,3.2,1.4,3.2,3.2S832,1230.7,830.2,1230.7z"/>
	</g>
	<g>
		<path class="st0" d="M830.2,1279.4c-1.8,0-3.2-1.4-3.2-3.2c0-1.8,1.4-3.2,3.2-3.2c1.8,0,3.2,1.4,3.2,3.2
			C833.5,1277.9,832,1279.4,830.2,1279.4z"/>
	</g>
	<g>
		<path class="st0" d="M830.2,1328.1c-1.8,0-3.2-1.4-3.2-3.2c0-1.8,1.4-3.2,3.2-3.2c1.8,0,3.2,1.4,3.2,3.2
			C833.5,1326.6,832,1328.1,830.2,1328.1z"/>
	</g>
</g>
<g>
	<g>
		<path class="st0" d="M3.2,6.4C1.4,6.4,0,5,0,3.2C0,1.4,1.4,0,3.2,0C5,0,6.4,1.4,6.4,3.2C6.4,5,5,6.4,3.2,6.4z"/>
	</g>
	<g>
		<path class="st0" d="M3.2,55.2c-1.8,0-3.2-1.4-3.2-3.2s1.4-3.2,3.2-3.2c1.8,0,3.2,1.4,3.2,3.2S5,55.2,3.2,55.2z"/>
	</g>
	<g>
		<path class="st0" d="M3.2,103.9c-1.8,0-3.2-1.4-3.2-3.2s1.4-3.2,3.2-3.2c1.8,0,3.2,1.4,3.2,3.2S5,103.9,3.2,103.9z"/>
	</g>
	<g>
		<path class="st0" d="M3.2,152.6c-1.8,0-3.2-1.4-3.2-3.2c0-1.8,1.4-3.2,3.2-3.2c1.8,0,3.2,1.4,3.2,3.2C6.4,151.2,5,152.6,3.2,152.6
			z"/>
	</g>
	<g>
		<path class="st0" d="M3.2,201.3c-1.8,0-3.2-1.4-3.2-3.2c0-1.8,1.4-3.2,3.2-3.2c1.8,0,3.2,1.4,3.2,3.2C6.4,199.9,5,201.3,3.2,201.3
			z"/>
	</g>
	<g>
		<path class="st0" d="M3.2,250c-1.8,0-3.2-1.4-3.2-3.2c0-1.8,1.4-3.2,3.2-3.2c1.8,0,3.2,1.4,3.2,3.2C6.4,248.6,5,250,3.2,250z"/>
	</g>
	<g>
		<path class="st0" d="M3.2,298.8c-1.8,0-3.2-1.4-3.2-3.2s1.4-3.2,3.2-3.2c1.8,0,3.2,1.4,3.2,3.2S5,298.8,3.2,298.8z"/>
	</g>
	<g>
		<path class="st0" d="M3.2,347.5c-1.8,0-3.2-1.4-3.2-3.2c0-1.8,1.4-3.2,3.2-3.2c1.8,0,3.2,1.4,3.2,3.2C6.4,346,5,347.5,3.2,347.5z"
			/>
	</g>
	<g>
		<path class="st0" d="M3.2,396.2c-1.8,0-3.2-1.4-3.2-3.2c0-1.8,1.4-3.2,3.2-3.2c1.8,0,3.2,1.4,3.2,3.2C6.4,394.8,5,396.2,3.2,396.2
			z"/>
	</g>
	<g>
		<path class="st0" d="M3.2,444.9c-1.8,0-3.2-1.4-3.2-3.2c0-1.8,1.4-3.2,3.2-3.2c1.8,0,3.2,1.4,3.2,3.2C6.4,443.5,5,444.9,3.2,444.9
			z"/>
	</g>
	<g>
		<path class="st0" d="M3.2,493.6c-1.8,0-3.2-1.4-3.2-3.2c0-1.8,1.4-3.2,3.2-3.2c1.8,0,3.2,1.4,3.2,3.2C6.4,492.2,5,493.6,3.2,493.6
			z"/>
	</g>
	<g>
		<path class="st0" d="M3.2,542.4c-1.8,0-3.2-1.4-3.2-3.2s1.4-3.2,3.2-3.2c1.8,0,3.2,1.4,3.2,3.2S5,542.4,3.2,542.4z"/>
	</g>
	<g>
		<path class="st0" d="M3.2,591.1c-1.8,0-3.2-1.4-3.2-3.2c0-1.8,1.4-3.2,3.2-3.2c1.8,0,3.2,1.4,3.2,3.2C6.4,589.6,5,591.1,3.2,591.1
			z"/>
	</g>
	<g>
		<path class="st0" d="M3.2,639.8c-1.8,0-3.2-1.4-3.2-3.2c0-1.8,1.4-3.2,3.2-3.2c1.8,0,3.2,1.4,3.2,3.2C6.4,638.4,5,639.8,3.2,639.8
			z"/>
	</g>
</g>
<g>
	<g>
		<path class="st0" d="M73.3,6.4c-1.8,0-3.2-1.4-3.2-3.2c0-1.8,1.4-3.2,3.2-3.2c1.8,0,3.2,1.4,3.2,3.2C76.6,5,75.1,6.4,73.3,6.4z"/>
	</g>
	<g>
		<path class="st0" d="M73.3,55.2c-1.8,0-3.2-1.4-3.2-3.2s1.4-3.2,3.2-3.2c1.8,0,3.2,1.4,3.2,3.2S75.1,55.2,73.3,55.2z"/>
	</g>
	<g>
		<path class="st0" d="M73.3,103.9c-1.8,0-3.2-1.4-3.2-3.2s1.4-3.2,3.2-3.2c1.8,0,3.2,1.4,3.2,3.2S75.1,103.9,73.3,103.9z"/>
	</g>
	<g>
		<path class="st0" d="M73.3,152.6c-1.8,0-3.2-1.4-3.2-3.2c0-1.8,1.4-3.2,3.2-3.2c1.8,0,3.2,1.4,3.2,3.2
			C76.6,151.2,75.1,152.6,73.3,152.6z"/>
	</g>
	<g>
		<path class="st0" d="M73.3,201.3c-1.8,0-3.2-1.4-3.2-3.2c0-1.8,1.4-3.2,3.2-3.2c1.8,0,3.2,1.4,3.2,3.2
			C76.6,199.9,75.1,201.3,73.3,201.3z"/>
	</g>
	<g>
		<path class="st0" d="M73.3,250c-1.8,0-3.2-1.4-3.2-3.2c0-1.8,1.4-3.2,3.2-3.2c1.8,0,3.2,1.4,3.2,3.2C76.6,248.6,75.1,250,73.3,250
			z"/>
	</g>
	<g>
		<path class="st0" d="M73.3,298.8c-1.8,0-3.2-1.4-3.2-3.2s1.4-3.2,3.2-3.2c1.8,0,3.2,1.4,3.2,3.2S75.1,298.8,73.3,298.8z"/>
	</g>
	<g>
		<path class="st0" d="M73.3,347.5c-1.8,0-3.2-1.4-3.2-3.2c0-1.8,1.4-3.2,3.2-3.2c1.8,0,3.2,1.4,3.2,3.2
			C76.6,346,75.1,347.5,73.3,347.5z"/>
	</g>
	<g>
		<path class="st0" d="M73.3,396.2c-1.8,0-3.2-1.4-3.2-3.2c0-1.8,1.4-3.2,3.2-3.2c1.8,0,3.2,1.4,3.2,3.2
			C76.6,394.8,75.1,396.2,73.3,396.2z"/>
	</g>
	<g>
		<path class="st0" d="M73.3,444.9c-1.8,0-3.2-1.4-3.2-3.2c0-1.8,1.4-3.2,3.2-3.2c1.8,0,3.2,1.4,3.2,3.2
			C76.6,443.5,75.1,444.9,73.3,444.9z"/>
	</g>
	<g>
		<path class="st0" d="M73.3,493.6c-1.8,0-3.2-1.4-3.2-3.2c0-1.8,1.4-3.2,3.2-3.2c1.8,0,3.2,1.4,3.2,3.2
			C76.6,492.2,75.1,493.6,73.3,493.6z"/>
	</g>
	<g>
		<path class="st0" d="M73.3,542.4c-1.8,0-3.2-1.4-3.2-3.2s1.4-3.2,3.2-3.2c1.8,0,3.2,1.4,3.2,3.2S75.1,542.4,73.3,542.4z"/>
	</g>
	<g>
		<path class="st0" d="M73.3,591.1c-1.8,0-3.2-1.4-3.2-3.2c0-1.8,1.4-3.2,3.2-3.2c1.8,0,3.2,1.4,3.2,3.2
			C76.6,589.6,75.1,591.1,73.3,591.1z"/>
	</g>
	<g>
		<path class="st0" d="M73.3,639.8c-1.8,0-3.2-1.4-3.2-3.2c0-1.8,1.4-3.2,3.2-3.2c1.8,0,3.2,1.4,3.2,3.2
			C76.6,638.4,75.1,639.8,73.3,639.8z"/>
	</g>
</g>
<g>
	<g>
		<path class="st0" d="M143.5,6.4c-1.8,0-3.2-1.4-3.2-3.2c0-1.8,1.4-3.2,3.2-3.2c1.8,0,3.2,1.4,3.2,3.2C146.7,5,145.2,6.4,143.5,6.4
			z"/>
	</g>
	<g>
		<path class="st0" d="M143.5,55.2c-1.8,0-3.2-1.4-3.2-3.2s1.4-3.2,3.2-3.2c1.8,0,3.2,1.4,3.2,3.2S145.2,55.2,143.5,55.2z"/>
	</g>
	<g>
		<path class="st0" d="M143.5,103.9c-1.8,0-3.2-1.4-3.2-3.2s1.4-3.2,3.2-3.2c1.8,0,3.2,1.4,3.2,3.2S145.2,103.9,143.5,103.9z"/>
	</g>
	<g>
		<path class="st0" d="M143.5,152.6c-1.8,0-3.2-1.4-3.2-3.2c0-1.8,1.4-3.2,3.2-3.2c1.8,0,3.2,1.4,3.2,3.2
			C146.7,151.2,145.2,152.6,143.5,152.6z"/>
	</g>
	<g>
		<path class="st0" d="M143.5,201.3c-1.8,0-3.2-1.4-3.2-3.2c0-1.8,1.4-3.2,3.2-3.2c1.8,0,3.2,1.4,3.2,3.2
			C146.7,199.9,145.2,201.3,143.5,201.3z"/>
	</g>
	<g>
		<path class="st0" d="M143.5,250c-1.8,0-3.2-1.4-3.2-3.2c0-1.8,1.4-3.2,3.2-3.2c1.8,0,3.2,1.4,3.2,3.2
			C146.7,248.6,145.2,250,143.5,250z"/>
	</g>
	<g>
		<path class="st0" d="M143.5,298.8c-1.8,0-3.2-1.4-3.2-3.2s1.4-3.2,3.2-3.2c1.8,0,3.2,1.4,3.2,3.2S145.2,298.8,143.5,298.8z"/>
	</g>
	<g>
		<path class="st0" d="M143.5,347.5c-1.8,0-3.2-1.4-3.2-3.2c0-1.8,1.4-3.2,3.2-3.2c1.8,0,3.2,1.4,3.2,3.2
			C146.7,346,145.2,347.5,143.5,347.5z"/>
	</g>
	<g>
		<path class="st0" d="M143.5,396.2c-1.8,0-3.2-1.4-3.2-3.2c0-1.8,1.4-3.2,3.2-3.2c1.8,0,3.2,1.4,3.2,3.2
			C146.7,394.8,145.2,396.2,143.5,396.2z"/>
	</g>
	<g>
		<path class="st0" d="M143.5,444.9c-1.8,0-3.2-1.4-3.2-3.2c0-1.8,1.4-3.2,3.2-3.2c1.8,0,3.2,1.4,3.2,3.2
			C146.7,443.5,145.2,444.9,143.5,444.9z"/>
	</g>
	<g>
		<path class="st0" d="M143.5,493.6c-1.8,0-3.2-1.4-3.2-3.2c0-1.8,1.4-3.2,3.2-3.2c1.8,0,3.2,1.4,3.2,3.2
			C146.7,492.2,145.2,493.6,143.5,493.6z"/>
	</g>
	<g>
		<path class="st0" d="M143.5,542.4c-1.8,0-3.2-1.4-3.2-3.2s1.4-3.2,3.2-3.2c1.8,0,3.2,1.4,3.2,3.2S145.2,542.4,143.5,542.4z"/>
	</g>
	<g>
		<path class="st0" d="M143.5,591.1c-1.8,0-3.2-1.4-3.2-3.2c0-1.8,1.4-3.2,3.2-3.2c1.8,0,3.2,1.4,3.2,3.2
			C146.7,589.6,145.2,591.1,143.5,591.1z"/>
	</g>
	<g>
		<path class="st0" d="M143.5,639.8c-1.8,0-3.2-1.4-3.2-3.2c0-1.8,1.4-3.2,3.2-3.2c1.8,0,3.2,1.4,3.2,3.2
			C146.7,638.4,145.2,639.8,143.5,639.8z"/>
	</g>
</g>
<g>
	<g>
		<path class="st0" d="M213.6,6.4c-1.8,0-3.2-1.4-3.2-3.2c0-1.8,1.4-3.2,3.2-3.2c1.8,0,3.2,1.4,3.2,3.2C216.8,5,215.4,6.4,213.6,6.4
			z"/>
	</g>
	<g>
		<path class="st0" d="M213.6,55.2c-1.8,0-3.2-1.4-3.2-3.2s1.4-3.2,3.2-3.2c1.8,0,3.2,1.4,3.2,3.2S215.4,55.2,213.6,55.2z"/>
	</g>
	<g>
		<path class="st0" d="M213.6,103.9c-1.8,0-3.2-1.4-3.2-3.2s1.4-3.2,3.2-3.2c1.8,0,3.2,1.4,3.2,3.2S215.4,103.9,213.6,103.9z"/>
	</g>
	<g>
		<path class="st0" d="M213.6,152.6c-1.8,0-3.2-1.4-3.2-3.2c0-1.8,1.4-3.2,3.2-3.2c1.8,0,3.2,1.4,3.2,3.2
			C216.8,151.2,215.4,152.6,213.6,152.6z"/>
	</g>
	<g>
		<path class="st0" d="M213.6,201.3c-1.8,0-3.2-1.4-3.2-3.2c0-1.8,1.4-3.2,3.2-3.2c1.8,0,3.2,1.4,3.2,3.2
			C216.8,199.9,215.4,201.3,213.6,201.3z"/>
	</g>
	<g>
		<path class="st0" d="M213.6,250c-1.8,0-3.2-1.4-3.2-3.2c0-1.8,1.4-3.2,3.2-3.2c1.8,0,3.2,1.4,3.2,3.2
			C216.8,248.6,215.4,250,213.6,250z"/>
	</g>
	<g>
		<path class="st0" d="M213.6,298.8c-1.8,0-3.2-1.4-3.2-3.2s1.4-3.2,3.2-3.2c1.8,0,3.2,1.4,3.2,3.2S215.4,298.8,213.6,298.8z"/>
	</g>
	<g>
		<path class="st0" d="M213.6,347.5c-1.8,0-3.2-1.4-3.2-3.2c0-1.8,1.4-3.2,3.2-3.2c1.8,0,3.2,1.4,3.2,3.2
			C216.8,346,215.4,347.5,213.6,347.5z"/>
	</g>
	<g>
		<path class="st0" d="M213.6,396.2c-1.8,0-3.2-1.4-3.2-3.2c0-1.8,1.4-3.2,3.2-3.2c1.8,0,3.2,1.4,3.2,3.2
			C216.8,394.8,215.4,396.2,213.6,396.2z"/>
	</g>
	<g>
		<path class="st0" d="M213.6,444.9c-1.8,0-3.2-1.4-3.2-3.2c0-1.8,1.4-3.2,3.2-3.2c1.8,0,3.2,1.4,3.2,3.2
			C216.8,443.5,215.4,444.9,213.6,444.9z"/>
	</g>
	<g>
		<path class="st0" d="M213.6,493.6c-1.8,0-3.2-1.4-3.2-3.2c0-1.8,1.4-3.2,3.2-3.2c1.8,0,3.2,1.4,3.2,3.2
			C216.8,492.2,215.4,493.6,213.6,493.6z"/>
	</g>
	<g>
		<path class="st0" d="M213.6,542.4c-1.8,0-3.2-1.4-3.2-3.2s1.4-3.2,3.2-3.2c1.8,0,3.2,1.4,3.2,3.2S215.4,542.4,213.6,542.4z"/>
	</g>
	<g>
		<path class="st0" d="M213.6,591.1c-1.8,0-3.2-1.4-3.2-3.2c0-1.8,1.4-3.2,3.2-3.2c1.8,0,3.2,1.4,3.2,3.2
			C216.8,589.6,215.4,591.1,213.6,591.1z"/>
	</g>
	<g>
		<path class="st0" d="M213.6,639.8c-1.8,0-3.2-1.4-3.2-3.2c0-1.8,1.4-3.2,3.2-3.2c1.8,0,3.2,1.4,3.2,3.2
			C216.8,638.4,215.4,639.8,213.6,639.8z"/>
	</g>
</g>
<g>
	<g>
		<path class="st0" d="M283.7,6.4c-1.8,0-3.2-1.4-3.2-3.2c0-1.8,1.4-3.2,3.2-3.2c1.8,0,3.2,1.4,3.2,3.2C286.9,5,285.5,6.4,283.7,6.4
			z"/>
	</g>
	<g>
		<path class="st0" d="M283.7,55.2c-1.8,0-3.2-1.4-3.2-3.2s1.4-3.2,3.2-3.2c1.8,0,3.2,1.4,3.2,3.2S285.5,55.2,283.7,55.2z"/>
	</g>
	<g>
		<path class="st0" d="M283.7,103.9c-1.8,0-3.2-1.4-3.2-3.2s1.4-3.2,3.2-3.2c1.8,0,3.2,1.4,3.2,3.2S285.5,103.9,283.7,103.9z"/>
	</g>
	<g>
		<path class="st0" d="M283.7,152.6c-1.8,0-3.2-1.4-3.2-3.2c0-1.8,1.4-3.2,3.2-3.2c1.8,0,3.2,1.4,3.2,3.2
			C286.9,151.2,285.5,152.6,283.7,152.6z"/>
	</g>
	<g>
		<path class="st0" d="M283.7,201.3c-1.8,0-3.2-1.4-3.2-3.2c0-1.8,1.4-3.2,3.2-3.2c1.8,0,3.2,1.4,3.2,3.2
			C286.9,199.9,285.5,201.3,283.7,201.3z"/>
	</g>
	<g>
		<path class="st0" d="M283.7,250c-1.8,0-3.2-1.4-3.2-3.2c0-1.8,1.4-3.2,3.2-3.2c1.8,0,3.2,1.4,3.2,3.2
			C286.9,248.6,285.5,250,283.7,250z"/>
	</g>
	<g>
		<path class="st0" d="M283.7,298.8c-1.8,0-3.2-1.4-3.2-3.2s1.4-3.2,3.2-3.2c1.8,0,3.2,1.4,3.2,3.2S285.5,298.8,283.7,298.8z"/>
	</g>
	<g>
		<path class="st0" d="M283.7,347.5c-1.8,0-3.2-1.4-3.2-3.2c0-1.8,1.4-3.2,3.2-3.2c1.8,0,3.2,1.4,3.2,3.2
			C286.9,346,285.5,347.5,283.7,347.5z"/>
	</g>
	<g>
		<path class="st0" d="M283.7,396.2c-1.8,0-3.2-1.4-3.2-3.2c0-1.8,1.4-3.2,3.2-3.2c1.8,0,3.2,1.4,3.2,3.2
			C286.9,394.8,285.5,396.2,283.7,396.2z"/>
	</g>
	<g>
		<path class="st0" d="M283.7,444.9c-1.8,0-3.2-1.4-3.2-3.2c0-1.8,1.4-3.2,3.2-3.2c1.8,0,3.2,1.4,3.2,3.2
			C286.9,443.5,285.5,444.9,283.7,444.9z"/>
	</g>
	<g>
		<path class="st0" d="M283.7,493.6c-1.8,0-3.2-1.4-3.2-3.2c0-1.8,1.4-3.2,3.2-3.2c1.8,0,3.2,1.4,3.2,3.2
			C286.9,492.2,285.5,493.6,283.7,493.6z"/>
	</g>
	<g>
		<path class="st0" d="M283.7,542.4c-1.8,0-3.2-1.4-3.2-3.2s1.4-3.2,3.2-3.2c1.8,0,3.2,1.4,3.2,3.2S285.5,542.4,283.7,542.4z"/>
	</g>
	<g>
		<path class="st0" d="M283.7,591.1c-1.8,0-3.2-1.4-3.2-3.2c0-1.8,1.4-3.2,3.2-3.2c1.8,0,3.2,1.4,3.2,3.2
			C286.9,589.6,285.5,591.1,283.7,591.1z"/>
	</g>
	<g>
		<path class="st0" d="M283.7,639.8c-1.8,0-3.2-1.4-3.2-3.2c0-1.8,1.4-3.2,3.2-3.2c1.8,0,3.2,1.4,3.2,3.2
			C286.9,638.4,285.5,639.8,283.7,639.8z"/>
	</g>
</g>
<g>
	<g>
		<path class="st0" d="M353.8,6.4c-1.8,0-3.2-1.4-3.2-3.2c0-1.8,1.4-3.2,3.2-3.2c1.8,0,3.2,1.4,3.2,3.2C357,5,355.6,6.4,353.8,6.4z"
			/>
	</g>
	<g>
		<path class="st0" d="M353.8,55.2c-1.8,0-3.2-1.4-3.2-3.2s1.4-3.2,3.2-3.2c1.8,0,3.2,1.4,3.2,3.2S355.6,55.2,353.8,55.2z"/>
	</g>
	<g>
		<path class="st0" d="M353.8,103.9c-1.8,0-3.2-1.4-3.2-3.2s1.4-3.2,3.2-3.2c1.8,0,3.2,1.4,3.2,3.2S355.6,103.9,353.8,103.9z"/>
	</g>
	<g>
		<path class="st0" d="M353.8,152.6c-1.8,0-3.2-1.4-3.2-3.2c0-1.8,1.4-3.2,3.2-3.2c1.8,0,3.2,1.4,3.2,3.2
			C357,151.2,355.6,152.6,353.8,152.6z"/>
	</g>
	<g>
		<path class="st0" d="M353.8,201.3c-1.8,0-3.2-1.4-3.2-3.2c0-1.8,1.4-3.2,3.2-3.2c1.8,0,3.2,1.4,3.2,3.2
			C357,199.9,355.6,201.3,353.8,201.3z"/>
	</g>
	<g>
		<path class="st0" d="M353.8,250c-1.8,0-3.2-1.4-3.2-3.2c0-1.8,1.4-3.2,3.2-3.2c1.8,0,3.2,1.4,3.2,3.2
			C357,248.6,355.6,250,353.8,250z"/>
	</g>
	<g>
		<path class="st0" d="M353.8,298.8c-1.8,0-3.2-1.4-3.2-3.2s1.4-3.2,3.2-3.2c1.8,0,3.2,1.4,3.2,3.2S355.6,298.8,353.8,298.8z"/>
	</g>
	<g>
		<path class="st0" d="M353.8,347.5c-1.8,0-3.2-1.4-3.2-3.2c0-1.8,1.4-3.2,3.2-3.2c1.8,0,3.2,1.4,3.2,3.2
			C357,346,355.6,347.5,353.8,347.5z"/>
	</g>
	<g>
		<path class="st0" d="M353.8,396.2c-1.8,0-3.2-1.4-3.2-3.2c0-1.8,1.4-3.2,3.2-3.2c1.8,0,3.2,1.4,3.2,3.2
			C357,394.8,355.6,396.2,353.8,396.2z"/>
	</g>
	<g>
		<path class="st0" d="M353.8,444.9c-1.8,0-3.2-1.4-3.2-3.2c0-1.8,1.4-3.2,3.2-3.2c1.8,0,3.2,1.4,3.2,3.2
			C357,443.5,355.6,444.9,353.8,444.9z"/>
	</g>
	<g>
		<path class="st0" d="M353.8,493.6c-1.8,0-3.2-1.4-3.2-3.2c0-1.8,1.4-3.2,3.2-3.2c1.8,0,3.2,1.4,3.2,3.2
			C357,492.2,355.6,493.6,353.8,493.6z"/>
	</g>
	<g>
		<path class="st0" d="M353.8,542.4c-1.8,0-3.2-1.4-3.2-3.2s1.4-3.2,3.2-3.2c1.8,0,3.2,1.4,3.2,3.2S355.6,542.4,353.8,542.4z"/>
	</g>
	<g>
		<path class="st0" d="M353.8,591.1c-1.8,0-3.2-1.4-3.2-3.2c0-1.8,1.4-3.2,3.2-3.2c1.8,0,3.2,1.4,3.2,3.2
			C357,589.6,355.6,591.1,353.8,591.1z"/>
	</g>
	<g>
		<path class="st0" d="M353.8,639.8c-1.8,0-3.2-1.4-3.2-3.2c0-1.8,1.4-3.2,3.2-3.2c1.8,0,3.2,1.4,3.2,3.2
			C357,638.4,355.6,639.8,353.8,639.8z"/>
	</g>
</g>
<g>
	<g>
		<path class="st0" d="M423.9,6.4c-1.8,0-3.2-1.4-3.2-3.2c0-1.8,1.4-3.2,3.2-3.2c1.8,0,3.2,1.4,3.2,3.2C427.2,5,425.7,6.4,423.9,6.4
			z"/>
	</g>
	<g>
		<path class="st0" d="M423.9,55.2c-1.8,0-3.2-1.4-3.2-3.2s1.4-3.2,3.2-3.2c1.8,0,3.2,1.4,3.2,3.2S425.7,55.2,423.9,55.2z"/>
	</g>
	<g>
		<path class="st0" d="M423.9,103.9c-1.8,0-3.2-1.4-3.2-3.2s1.4-3.2,3.2-3.2c1.8,0,3.2,1.4,3.2,3.2S425.7,103.9,423.9,103.9z"/>
	</g>
	<g>
		<path class="st0" d="M423.9,152.6c-1.8,0-3.2-1.4-3.2-3.2c0-1.8,1.4-3.2,3.2-3.2c1.8,0,3.2,1.4,3.2,3.2
			C427.2,151.2,425.7,152.6,423.9,152.6z"/>
	</g>
	<g>
		<path class="st0" d="M423.9,201.3c-1.8,0-3.2-1.4-3.2-3.2c0-1.8,1.4-3.2,3.2-3.2c1.8,0,3.2,1.4,3.2,3.2
			C427.2,199.9,425.7,201.3,423.9,201.3z"/>
	</g>
	<g>
		<path class="st0" d="M423.9,250c-1.8,0-3.2-1.4-3.2-3.2c0-1.8,1.4-3.2,3.2-3.2c1.8,0,3.2,1.4,3.2,3.2
			C427.2,248.6,425.7,250,423.9,250z"/>
	</g>
	<g>
		<path class="st0" d="M423.9,298.8c-1.8,0-3.2-1.4-3.2-3.2s1.4-3.2,3.2-3.2c1.8,0,3.2,1.4,3.2,3.2S425.7,298.8,423.9,298.8z"/>
	</g>
	<g>
		<path class="st0" d="M423.9,347.5c-1.8,0-3.2-1.4-3.2-3.2c0-1.8,1.4-3.2,3.2-3.2c1.8,0,3.2,1.4,3.2,3.2
			C427.2,346,425.7,347.5,423.9,347.5z"/>
	</g>
	<g>
		<path class="st0" d="M423.9,396.2c-1.8,0-3.2-1.4-3.2-3.2c0-1.8,1.4-3.2,3.2-3.2c1.8,0,3.2,1.4,3.2,3.2
			C427.2,394.8,425.7,396.2,423.9,396.2z"/>
	</g>
	<g>
		<path class="st0" d="M423.9,444.9c-1.8,0-3.2-1.4-3.2-3.2c0-1.8,1.4-3.2,3.2-3.2c1.8,0,3.2,1.4,3.2,3.2
			C427.2,443.5,425.7,444.9,423.9,444.9z"/>
	</g>
	<g>
		<path class="st0" d="M423.9,493.6c-1.8,0-3.2-1.4-3.2-3.2c0-1.8,1.4-3.2,3.2-3.2c1.8,0,3.2,1.4,3.2,3.2
			C427.2,492.2,425.7,493.6,423.9,493.6z"/>
	</g>
	<g>
		<path class="st0" d="M423.9,542.4c-1.8,0-3.2-1.4-3.2-3.2s1.4-3.2,3.2-3.2c1.8,0,3.2,1.4,3.2,3.2S425.7,542.4,423.9,542.4z"/>
	</g>
	<g>
		<path class="st0" d="M423.9,591.1c-1.8,0-3.2-1.4-3.2-3.2c0-1.8,1.4-3.2,3.2-3.2c1.8,0,3.2,1.4,3.2,3.2
			C427.2,589.6,425.7,591.1,423.9,591.1z"/>
	</g>
	<g>
		<path class="st0" d="M423.9,639.8c-1.8,0-3.2-1.4-3.2-3.2c0-1.8,1.4-3.2,3.2-3.2c1.8,0,3.2,1.4,3.2,3.2
			C427.2,638.4,425.7,639.8,423.9,639.8z"/>
	</g>
</g>
<g>
	<g>
		<path class="st0" d="M489.2,6.4c-1.8,0-3.2-1.4-3.2-3.2c0-1.8,1.4-3.2,3.2-3.2c1.8,0,3.2,1.4,3.2,3.2C492.4,5,491,6.4,489.2,6.4z"
			/>
	</g>
	<g>
		<path class="st0" d="M489.2,55.2c-1.8,0-3.2-1.4-3.2-3.2s1.4-3.2,3.2-3.2c1.8,0,3.2,1.4,3.2,3.2S491,55.2,489.2,55.2z"/>
	</g>
	<g>
		<path class="st0" d="M489.2,103.9c-1.8,0-3.2-1.4-3.2-3.2s1.4-3.2,3.2-3.2c1.8,0,3.2,1.4,3.2,3.2S491,103.9,489.2,103.9z"/>
	</g>
	<g>
		<path class="st0" d="M489.2,152.6c-1.8,0-3.2-1.4-3.2-3.2c0-1.8,1.4-3.2,3.2-3.2c1.8,0,3.2,1.4,3.2,3.2
			C492.4,151.2,491,152.6,489.2,152.6z"/>
	</g>
	<g>
		<path class="st0" d="M489.2,201.3c-1.8,0-3.2-1.4-3.2-3.2c0-1.8,1.4-3.2,3.2-3.2c1.8,0,3.2,1.4,3.2,3.2
			C492.4,199.9,491,201.3,489.2,201.3z"/>
	</g>
	<g>
		<path class="st0" d="M489.2,250c-1.8,0-3.2-1.4-3.2-3.2c0-1.8,1.4-3.2,3.2-3.2c1.8,0,3.2,1.4,3.2,3.2
			C492.4,248.6,491,250,489.2,250z"/>
	</g>
	<g>
		<path class="st0" d="M489.2,298.8c-1.8,0-3.2-1.4-3.2-3.2s1.4-3.2,3.2-3.2c1.8,0,3.2,1.4,3.2,3.2S491,298.8,489.2,298.8z"/>
	</g>
	<g>
		<path class="st0" d="M489.2,347.5c-1.8,0-3.2-1.4-3.2-3.2c0-1.8,1.4-3.2,3.2-3.2c1.8,0,3.2,1.4,3.2,3.2
			C492.4,346,491,347.5,489.2,347.5z"/>
	</g>
	<g>
		<path class="st0" d="M489.2,396.2c-1.8,0-3.2-1.4-3.2-3.2c0-1.8,1.4-3.2,3.2-3.2c1.8,0,3.2,1.4,3.2,3.2
			C492.4,394.8,491,396.2,489.2,396.2z"/>
	</g>
	<g>
		<path class="st0" d="M489.2,444.9c-1.8,0-3.2-1.4-3.2-3.2c0-1.8,1.4-3.2,3.2-3.2c1.8,0,3.2,1.4,3.2,3.2
			C492.4,443.5,491,444.9,489.2,444.9z"/>
	</g>
	<g>
		<path class="st0" d="M489.2,493.6c-1.8,0-3.2-1.4-3.2-3.2c0-1.8,1.4-3.2,3.2-3.2c1.8,0,3.2,1.4,3.2,3.2
			C492.4,492.2,491,493.6,489.2,493.6z"/>
	</g>
	<g>
		<path class="st0" d="M489.2,542.4c-1.8,0-3.2-1.4-3.2-3.2s1.4-3.2,3.2-3.2c1.8,0,3.2,1.4,3.2,3.2S491,542.4,489.2,542.4z"/>
	</g>
	<g>
		<path class="st0" d="M489.2,591.1c-1.8,0-3.2-1.4-3.2-3.2c0-1.8,1.4-3.2,3.2-3.2c1.8,0,3.2,1.4,3.2,3.2
			C492.4,589.6,491,591.1,489.2,591.1z"/>
	</g>
	<g>
		<path class="st0" d="M489.2,639.8c-1.8,0-3.2-1.4-3.2-3.2c0-1.8,1.4-3.2,3.2-3.2c1.8,0,3.2,1.4,3.2,3.2
			C492.4,638.4,491,639.8,489.2,639.8z"/>
	</g>
</g>
<g>
	<g>
		<path class="st0" d="M558.3,6.4c-1.8,0-3.2-1.4-3.2-3.2c0-1.8,1.4-3.2,3.2-3.2s3.2,1.4,3.2,3.2C561.5,5,560.1,6.4,558.3,6.4z"/>
	</g>
	<g>
		<path class="st0" d="M558.3,55.2c-1.8,0-3.2-1.4-3.2-3.2s1.4-3.2,3.2-3.2s3.2,1.4,3.2,3.2S560.1,55.2,558.3,55.2z"/>
	</g>
	<g>
		<path class="st0" d="M558.3,103.9c-1.8,0-3.2-1.4-3.2-3.2s1.4-3.2,3.2-3.2s3.2,1.4,3.2,3.2S560.1,103.9,558.3,103.9z"/>
	</g>
	<g>
		<path class="st0" d="M558.3,152.6c-1.8,0-3.2-1.4-3.2-3.2c0-1.8,1.4-3.2,3.2-3.2s3.2,1.4,3.2,3.2
			C561.5,151.2,560.1,152.6,558.3,152.6z"/>
	</g>
	<g>
		<path class="st0" d="M558.3,201.3c-1.8,0-3.2-1.4-3.2-3.2c0-1.8,1.4-3.2,3.2-3.2s3.2,1.4,3.2,3.2
			C561.5,199.9,560.1,201.3,558.3,201.3z"/>
	</g>
	<g>
		<path class="st0" d="M558.3,250c-1.8,0-3.2-1.4-3.2-3.2c0-1.8,1.4-3.2,3.2-3.2s3.2,1.4,3.2,3.2C561.5,248.6,560.1,250,558.3,250z"
			/>
	</g>
	<g>
		<path class="st0" d="M558.3,298.8c-1.8,0-3.2-1.4-3.2-3.2s1.4-3.2,3.2-3.2s3.2,1.4,3.2,3.2S560.1,298.8,558.3,298.8z"/>
	</g>
	<g>
		<path class="st0" d="M558.3,347.5c-1.8,0-3.2-1.4-3.2-3.2c0-1.8,1.4-3.2,3.2-3.2s3.2,1.4,3.2,3.2
			C561.5,346,560.1,347.5,558.3,347.5z"/>
	</g>
	<g>
		<path class="st0" d="M558.3,396.2c-1.8,0-3.2-1.4-3.2-3.2c0-1.8,1.4-3.2,3.2-3.2s3.2,1.4,3.2,3.2
			C561.5,394.8,560.1,396.2,558.3,396.2z"/>
	</g>
	<g>
		<path class="st0" d="M558.3,444.9c-1.8,0-3.2-1.4-3.2-3.2c0-1.8,1.4-3.2,3.2-3.2s3.2,1.4,3.2,3.2
			C561.5,443.5,560.1,444.9,558.3,444.9z"/>
	</g>
	<g>
		<path class="st0" d="M558.3,493.6c-1.8,0-3.2-1.4-3.2-3.2c0-1.8,1.4-3.2,3.2-3.2s3.2,1.4,3.2,3.2
			C561.5,492.2,560.1,493.6,558.3,493.6z"/>
	</g>
	<g>
		<path class="st0" d="M558.3,542.4c-1.8,0-3.2-1.4-3.2-3.2s1.4-3.2,3.2-3.2s3.2,1.4,3.2,3.2S560.1,542.4,558.3,542.4z"/>
	</g>
	<g>
		<path class="st0" d="M558.3,591.1c-1.8,0-3.2-1.4-3.2-3.2c0-1.8,1.4-3.2,3.2-3.2s3.2,1.4,3.2,3.2
			C561.5,589.6,560.1,591.1,558.3,591.1z"/>
	</g>
	<g>
		<path class="st0" d="M558.3,639.8c-1.8,0-3.2-1.4-3.2-3.2c0-1.8,1.4-3.2,3.2-3.2s3.2,1.4,3.2,3.2
			C561.5,638.4,560.1,639.8,558.3,639.8z"/>
	</g>
</g>
<g>
	<g>
		<path class="st0" d="M625.7,6.4c-1.8,0-3.2-1.4-3.2-3.2c0-1.8,1.4-3.2,3.2-3.2c1.8,0,3.2,1.4,3.2,3.2C628.9,5,627.5,6.4,625.7,6.4
			z"/>
	</g>
	<g>
		<path class="st0" d="M625.7,55.2c-1.8,0-3.2-1.4-3.2-3.2s1.4-3.2,3.2-3.2c1.8,0,3.2,1.4,3.2,3.2S627.5,55.2,625.7,55.2z"/>
	</g>
	<g>
		<path class="st0" d="M625.7,103.9c-1.8,0-3.2-1.4-3.2-3.2s1.4-3.2,3.2-3.2c1.8,0,3.2,1.4,3.2,3.2S627.5,103.9,625.7,103.9z"/>
	</g>
	<g>
		<path class="st0" d="M625.7,152.6c-1.8,0-3.2-1.4-3.2-3.2c0-1.8,1.4-3.2,3.2-3.2c1.8,0,3.2,1.4,3.2,3.2
			C628.9,151.2,627.5,152.6,625.7,152.6z"/>
	</g>
	<g>
		<path class="st0" d="M625.7,201.3c-1.8,0-3.2-1.4-3.2-3.2c0-1.8,1.4-3.2,3.2-3.2c1.8,0,3.2,1.4,3.2,3.2
			C628.9,199.9,627.5,201.3,625.7,201.3z"/>
	</g>
	<g>
		<path class="st0" d="M625.7,250c-1.8,0-3.2-1.4-3.2-3.2c0-1.8,1.4-3.2,3.2-3.2c1.8,0,3.2,1.4,3.2,3.2
			C628.9,248.6,627.5,250,625.7,250z"/>
	</g>
	<g>
		<path class="st0" d="M625.7,298.8c-1.8,0-3.2-1.4-3.2-3.2s1.4-3.2,3.2-3.2c1.8,0,3.2,1.4,3.2,3.2S627.5,298.8,625.7,298.8z"/>
	</g>
	<g>
		<path class="st0" d="M625.7,347.5c-1.8,0-3.2-1.4-3.2-3.2c0-1.8,1.4-3.2,3.2-3.2c1.8,0,3.2,1.4,3.2,3.2
			C628.9,346,627.5,347.5,625.7,347.5z"/>
	</g>
	<g>
		<path class="st0" d="M625.7,396.2c-1.8,0-3.2-1.4-3.2-3.2c0-1.8,1.4-3.2,3.2-3.2c1.8,0,3.2,1.4,3.2,3.2
			C628.9,394.8,627.5,396.2,625.7,396.2z"/>
	</g>
	<g>
		<path class="st0" d="M625.7,444.9c-1.8,0-3.2-1.4-3.2-3.2c0-1.8,1.4-3.2,3.2-3.2c1.8,0,3.2,1.4,3.2,3.2
			C628.9,443.5,627.5,444.9,625.7,444.9z"/>
	</g>
	<g>
		<path class="st0" d="M625.7,493.6c-1.8,0-3.2-1.4-3.2-3.2c0-1.8,1.4-3.2,3.2-3.2c1.8,0,3.2,1.4,3.2,3.2
			C628.9,492.2,627.5,493.6,625.7,493.6z"/>
	</g>
	<g>
		<path class="st0" d="M625.7,542.4c-1.8,0-3.2-1.4-3.2-3.2s1.4-3.2,3.2-3.2c1.8,0,3.2,1.4,3.2,3.2S627.5,542.4,625.7,542.4z"/>
	</g>
	<g>
		<path class="st0" d="M625.7,591.1c-1.8,0-3.2-1.4-3.2-3.2c0-1.8,1.4-3.2,3.2-3.2c1.8,0,3.2,1.4,3.2,3.2
			C628.9,589.6,627.5,591.1,625.7,591.1z"/>
	</g>
	<g>
		<path class="st0" d="M625.7,639.8c-1.8,0-3.2-1.4-3.2-3.2c0-1.8,1.4-3.2,3.2-3.2c1.8,0,3.2,1.4,3.2,3.2
			C628.9,638.4,627.5,639.8,625.7,639.8z"/>
	</g>
</g>
<g>
	<g>
		<path class="st0" d="M695.8,6.4c-1.8,0-3.2-1.4-3.2-3.2c0-1.8,1.4-3.2,3.2-3.2c1.8,0,3.2,1.4,3.2,3.2C699.1,5,697.6,6.4,695.8,6.4
			z"/>
	</g>
	<g>
		<path class="st0" d="M695.8,55.2c-1.8,0-3.2-1.4-3.2-3.2s1.4-3.2,3.2-3.2c1.8,0,3.2,1.4,3.2,3.2S697.6,55.2,695.8,55.2z"/>
	</g>
	<g>
		<path class="st0" d="M695.8,103.9c-1.8,0-3.2-1.4-3.2-3.2s1.4-3.2,3.2-3.2c1.8,0,3.2,1.4,3.2,3.2S697.6,103.9,695.8,103.9z"/>
	</g>
	<g>
		<path class="st0" d="M695.8,152.6c-1.8,0-3.2-1.4-3.2-3.2c0-1.8,1.4-3.2,3.2-3.2c1.8,0,3.2,1.4,3.2,3.2
			C699.1,151.2,697.6,152.6,695.8,152.6z"/>
	</g>
	<g>
		<path class="st0" d="M695.8,201.3c-1.8,0-3.2-1.4-3.2-3.2c0-1.8,1.4-3.2,3.2-3.2c1.8,0,3.2,1.4,3.2,3.2
			C699.1,199.9,697.6,201.3,695.8,201.3z"/>
	</g>
	<g>
		<path class="st0" d="M695.8,250c-1.8,0-3.2-1.4-3.2-3.2c0-1.8,1.4-3.2,3.2-3.2c1.8,0,3.2,1.4,3.2,3.2
			C699.1,248.6,697.6,250,695.8,250z"/>
	</g>
	<g>
		<path class="st0" d="M695.8,298.8c-1.8,0-3.2-1.4-3.2-3.2s1.4-3.2,3.2-3.2c1.8,0,3.2,1.4,3.2,3.2S697.6,298.8,695.8,298.8z"/>
	</g>
	<g>
		<path class="st0" d="M695.8,347.5c-1.8,0-3.2-1.4-3.2-3.2c0-1.8,1.4-3.2,3.2-3.2c1.8,0,3.2,1.4,3.2,3.2
			C699.1,346,697.6,347.5,695.8,347.5z"/>
	</g>
	<g>
		<path class="st0" d="M695.8,396.2c-1.8,0-3.2-1.4-3.2-3.2c0-1.8,1.4-3.2,3.2-3.2c1.8,0,3.2,1.4,3.2,3.2
			C699.1,394.8,697.6,396.2,695.8,396.2z"/>
	</g>
	<g>
		<path class="st0" d="M695.8,444.9c-1.8,0-3.2-1.4-3.2-3.2c0-1.8,1.4-3.2,3.2-3.2c1.8,0,3.2,1.4,3.2,3.2
			C699.1,443.5,697.6,444.9,695.8,444.9z"/>
	</g>
	<g>
		<path class="st0" d="M695.8,493.6c-1.8,0-3.2-1.4-3.2-3.2c0-1.8,1.4-3.2,3.2-3.2c1.8,0,3.2,1.4,3.2,3.2
			C699.1,492.2,697.6,493.6,695.8,493.6z"/>
	</g>
	<g>
		<path class="st0" d="M695.8,542.4c-1.8,0-3.2-1.4-3.2-3.2s1.4-3.2,3.2-3.2c1.8,0,3.2,1.4,3.2,3.2S697.6,542.4,695.8,542.4z"/>
	</g>
	<g>
		<path class="st0" d="M695.8,591.1c-1.8,0-3.2-1.4-3.2-3.2c0-1.8,1.4-3.2,3.2-3.2c1.8,0,3.2,1.4,3.2,3.2
			C699.1,589.6,697.6,591.1,695.8,591.1z"/>
	</g>
	<g>
		<path class="st0" d="M695.8,639.8c-1.8,0-3.2-1.4-3.2-3.2c0-1.8,1.4-3.2,3.2-3.2c1.8,0,3.2,1.4,3.2,3.2
			C699.1,638.4,697.6,639.8,695.8,639.8z"/>
	</g>
</g>
<g>
	<g>
		<path class="st0" d="M761.1,6.4c-1.8,0-3.2-1.4-3.2-3.2c0-1.8,1.4-3.2,3.2-3.2c1.8,0,3.2,1.4,3.2,3.2C764.3,5,762.9,6.4,761.1,6.4
			z"/>
	</g>
	<g>
		<path class="st0" d="M761.1,55.2c-1.8,0-3.2-1.4-3.2-3.2s1.4-3.2,3.2-3.2c1.8,0,3.2,1.4,3.2,3.2S762.9,55.2,761.1,55.2z"/>
	</g>
	<g>
		<path class="st0" d="M761.1,103.9c-1.8,0-3.2-1.4-3.2-3.2s1.4-3.2,3.2-3.2c1.8,0,3.2,1.4,3.2,3.2S762.9,103.9,761.1,103.9z"/>
	</g>
	<g>
		<path class="st0" d="M761.1,152.6c-1.8,0-3.2-1.4-3.2-3.2c0-1.8,1.4-3.2,3.2-3.2c1.8,0,3.2,1.4,3.2,3.2
			C764.3,151.2,762.9,152.6,761.1,152.6z"/>
	</g>
	<g>
		<path class="st0" d="M761.1,201.3c-1.8,0-3.2-1.4-3.2-3.2c0-1.8,1.4-3.2,3.2-3.2c1.8,0,3.2,1.4,3.2,3.2
			C764.3,199.9,762.9,201.3,761.1,201.3z"/>
	</g>
	<g>
		<path class="st0" d="M761.1,250c-1.8,0-3.2-1.4-3.2-3.2c0-1.8,1.4-3.2,3.2-3.2c1.8,0,3.2,1.4,3.2,3.2
			C764.3,248.6,762.9,250,761.1,250z"/>
	</g>
	<g>
		<path class="st0" d="M761.1,298.8c-1.8,0-3.2-1.4-3.2-3.2s1.4-3.2,3.2-3.2c1.8,0,3.2,1.4,3.2,3.2S762.9,298.8,761.1,298.8z"/>
	</g>
	<g>
		<path class="st0" d="M761.1,347.5c-1.8,0-3.2-1.4-3.2-3.2c0-1.8,1.4-3.2,3.2-3.2c1.8,0,3.2,1.4,3.2,3.2
			C764.3,346,762.9,347.5,761.1,347.5z"/>
	</g>
	<g>
		<path class="st0" d="M761.1,396.2c-1.8,0-3.2-1.4-3.2-3.2c0-1.8,1.4-3.2,3.2-3.2c1.8,0,3.2,1.4,3.2,3.2
			C764.3,394.8,762.9,396.2,761.1,396.2z"/>
	</g>
	<g>
		<path class="st0" d="M761.1,444.9c-1.8,0-3.2-1.4-3.2-3.2c0-1.8,1.4-3.2,3.2-3.2c1.8,0,3.2,1.4,3.2,3.2
			C764.3,443.5,762.9,444.9,761.1,444.9z"/>
	</g>
	<g>
		<path class="st0" d="M761.1,493.6c-1.8,0-3.2-1.4-3.2-3.2c0-1.8,1.4-3.2,3.2-3.2c1.8,0,3.2,1.4,3.2,3.2
			C764.3,492.2,762.9,493.6,761.1,493.6z"/>
	</g>
	<g>
		<path class="st0" d="M761.1,542.4c-1.8,0-3.2-1.4-3.2-3.2s1.4-3.2,3.2-3.2c1.8,0,3.2,1.4,3.2,3.2S762.9,542.4,761.1,542.4z"/>
	</g>
	<g>
		<path class="st0" d="M761.1,591.1c-1.8,0-3.2-1.4-3.2-3.2c0-1.8,1.4-3.2,3.2-3.2c1.8,0,3.2,1.4,3.2,3.2
			C764.3,589.6,762.9,591.1,761.1,591.1z"/>
	</g>
	<g>
		<path class="st0" d="M761.1,639.8c-1.8,0-3.2-1.4-3.2-3.2c0-1.8,1.4-3.2,3.2-3.2c1.8,0,3.2,1.4,3.2,3.2
			C764.3,638.4,762.9,639.8,761.1,639.8z"/>
	</g>
</g>
<g>
	<g>
		<path class="st0" d="M830.2,6.4c-1.8,0-3.2-1.4-3.2-3.2c0-1.8,1.4-3.2,3.2-3.2c1.8,0,3.2,1.4,3.2,3.2C833.5,5,832,6.4,830.2,6.4z"
			/>
	</g>
	<g>
		<path class="st0" d="M830.2,55.2c-1.8,0-3.2-1.4-3.2-3.2s1.4-3.2,3.2-3.2c1.8,0,3.2,1.4,3.2,3.2S832,55.2,830.2,55.2z"/>
	</g>
	<g>
		<path class="st0" d="M830.2,103.9c-1.8,0-3.2-1.4-3.2-3.2s1.4-3.2,3.2-3.2c1.8,0,3.2,1.4,3.2,3.2S832,103.9,830.2,103.9z"/>
	</g>
	<g>
		<path class="st0" d="M830.2,152.6c-1.8,0-3.2-1.4-3.2-3.2c0-1.8,1.4-3.2,3.2-3.2c1.8,0,3.2,1.4,3.2,3.2
			C833.5,151.2,832,152.6,830.2,152.6z"/>
	</g>
	<g>
		<path class="st0" d="M830.2,201.3c-1.8,0-3.2-1.4-3.2-3.2c0-1.8,1.4-3.2,3.2-3.2c1.8,0,3.2,1.4,3.2,3.2
			C833.5,199.9,832,201.3,830.2,201.3z"/>
	</g>
	<g>
		<path class="st0" d="M830.2,250c-1.8,0-3.2-1.4-3.2-3.2c0-1.8,1.4-3.2,3.2-3.2c1.8,0,3.2,1.4,3.2,3.2
			C833.5,248.6,832,250,830.2,250z"/>
	</g>
	<g>
		<path class="st0" d="M830.2,298.8c-1.8,0-3.2-1.4-3.2-3.2s1.4-3.2,3.2-3.2c1.8,0,3.2,1.4,3.2,3.2S832,298.8,830.2,298.8z"/>
	</g>
	<g>
		<path class="st0" d="M830.2,347.5c-1.8,0-3.2-1.4-3.2-3.2c0-1.8,1.4-3.2,3.2-3.2c1.8,0,3.2,1.4,3.2,3.2
			C833.5,346,832,347.5,830.2,347.5z"/>
	</g>
	<g>
		<path class="st0" d="M830.2,396.2c-1.8,0-3.2-1.4-3.2-3.2c0-1.8,1.4-3.2,3.2-3.2c1.8,0,3.2,1.4,3.2,3.2
			C833.5,394.8,832,396.2,830.2,396.2z"/>
	</g>
	<g>
		<path class="st0" d="M830.2,444.9c-1.8,0-3.2-1.4-3.2-3.2c0-1.8,1.4-3.2,3.2-3.2c1.8,0,3.2,1.4,3.2,3.2
			C833.5,443.5,832,444.9,830.2,444.9z"/>
	</g>
	<g>
		<path class="st0" d="M830.2,493.6c-1.8,0-3.2-1.4-3.2-3.2c0-1.8,1.4-3.2,3.2-3.2c1.8,0,3.2,1.4,3.2,3.2
			C833.5,492.2,832,493.6,830.2,493.6z"/>
	</g>
	<g>
		<path class="st0" d="M830.2,542.4c-1.8,0-3.2-1.4-3.2-3.2s1.4-3.2,3.2-3.2c1.8,0,3.2,1.4,3.2,3.2S832,542.4,830.2,542.4z"/>
	</g>
	<g>
		<path class="st0" d="M830.2,591.1c-1.8,0-3.2-1.4-3.2-3.2c0-1.8,1.4-3.2,3.2-3.2c1.8,0,3.2,1.4,3.2,3.2
			C833.5,589.6,832,591.1,830.2,591.1z"/>
	</g>
	<g>
		<path class="st0" d="M830.2,639.8c-1.8,0-3.2-1.4-3.2-3.2c0-1.8,1.4-3.2,3.2-3.2c1.8,0,3.2,1.4,3.2,3.2
			C833.5,638.4,832,639.8,830.2,639.8z"/>
	</g>
</g>
</svg>
