<?xml version="1.0" encoding="UTF-8"?>
<svg xmlns="http://www.w3.org/2000/svg" xmlns:xlink="http://www.w3.org/1999/xlink" width="150px" height="38px" viewBox="0 0 150 38" version="1.1">
<g id="surface1">
<path style=" stroke:none;fill-rule:nonzero;fill:rgb(6.666667%,7.843137%,8.235294%);fill-opacity:1;" d="M 0 15.257812 L 0 10.308594 L 4.433594 10.308594 L 4.433594 8.214844 C 4.433594 5.820312 5.175781 3.851562 6.683594 2.320312 C 8.167969 0.773438 10.414062 0.0078125 13.445312 0.0078125 C 14.105469 0.0078125 14.769531 0.0273438 15.429688 0.0859375 C 16.09375 0.148438 16.734375 0.1875 17.359375 0.207031 L 17.359375 5.742188 C 16.496094 5.640625 15.59375 5.582031 14.648438 5.582031 C 13.644531 5.582031 12.921875 5.820312 12.480469 6.285156 C 12.039062 6.765625 11.839844 7.570312 11.839844 8.679688 L 11.839844 10.308594 L 16.957031 10.308594 L 16.957031 15.277344 L 11.839844 15.277344 L 11.839844 37.328125 L 4.433594 37.328125 L 4.433594 15.257812 Z M 0 15.257812 "/>
<path style=" stroke:none;fill-rule:nonzero;fill:rgb(6.666667%,7.843137%,8.235294%);fill-opacity:1;" d="M 17.71875 17.953125 C 18.382812 16.203125 19.324219 14.695312 20.527344 13.46875 C 21.753906 12.238281 23.199219 11.273438 24.902344 10.589844 C 26.609375 9.90625 28.515625 9.5625 30.640625 9.5625 C 32.769531 9.5625 34.675781 9.90625 36.402344 10.589844 C 38.128906 11.273438 39.59375 12.21875 40.796875 13.46875 C 42.019531 14.695312 42.941406 16.203125 43.605469 17.953125 C 44.265625 19.703125 44.589844 21.675781 44.589844 23.828125 C 44.589844 25.980469 44.265625 27.933594 43.605469 29.683594 C 42.941406 31.433594 42 32.921875 40.796875 34.148438 C 39.570312 35.378906 38.105469 36.34375 36.402344 37.007812 C 34.675781 37.671875 32.769531 37.992188 30.640625 37.992188 C 28.515625 37.992188 26.609375 37.671875 24.902344 37.007812 C 23.199219 36.34375 21.734375 35.398438 20.527344 34.148438 C 19.304688 32.921875 18.382812 31.433594 17.71875 29.683594 C 17.058594 27.933594 16.734375 25.980469 16.734375 23.828125 C 16.734375 21.675781 17.058594 19.722656 17.71875 17.953125 Z M 24.441406 26.988281 C 24.640625 28.011719 25.003906 28.9375 25.503906 29.765625 C 26.007812 30.589844 26.667969 31.234375 27.511719 31.714844 C 28.355469 32.199219 29.398438 32.441406 30.640625 32.441406 C 31.886719 32.441406 32.949219 32.199219 33.792969 31.714844 C 34.636719 31.234375 35.316406 30.570312 35.820312 29.765625 C 36.320312 28.9375 36.683594 28.011719 36.882812 26.988281 C 37.082031 25.960938 37.203125 24.914062 37.203125 23.828125 C 37.203125 22.742188 37.105469 21.695312 36.882812 20.648438 C 36.683594 19.605469 36.320312 18.679688 35.820312 17.875 C 35.316406 17.070312 34.636719 16.425781 33.792969 15.921875 C 32.949219 15.417969 31.886719 15.15625 30.640625 15.15625 C 29.398438 15.15625 28.355469 15.417969 27.511719 15.921875 C 26.667969 16.425781 26.007812 17.089844 25.503906 17.875 C 25.003906 18.679688 24.640625 19.605469 24.441406 20.648438 C 24.242188 21.695312 24.121094 22.761719 24.121094 23.828125 C 24.140625 24.914062 24.242188 25.960938 24.441406 26.988281 Z M 24.441406 26.988281 "/>
<path style=" stroke:none;fill-rule:nonzero;fill:rgb(6.666667%,7.843137%,8.235294%);fill-opacity:1;" d="M 65.035156 37.308594 L 65.035156 33.546875 L 64.875 33.546875 C 63.933594 35.117188 62.730469 36.242188 61.222656 36.945312 C 59.738281 37.652344 58.195312 37.992188 56.628906 37.992188 C 54.640625 37.992188 53.015625 37.730469 51.753906 37.207031 C 50.488281 36.683594 49.484375 35.941406 48.761719 34.996094 C 48.039062 34.027344 47.519531 32.863281 47.21875 31.492188 C 46.917969 30.125 46.777344 28.597656 46.777344 26.925781 L 46.777344 10.308594 L 54.179688 10.308594 L 54.179688 25.558594 C 54.179688 27.792969 54.523438 29.441406 55.222656 30.546875 C 55.925781 31.65625 57.152344 32.199219 58.917969 32.199219 C 60.921875 32.199219 62.386719 31.59375 63.289062 30.386719 C 64.195312 29.179688 64.65625 27.207031 64.65625 24.453125 L 64.65625 10.308594 L 72.058594 10.308594 L 72.058594 37.328125 L 65.035156 37.328125 Z M 65.035156 37.308594 "/>
<path style=" stroke:none;fill-rule:nonzero;fill:rgb(6.666667%,7.843137%,8.235294%);fill-opacity:1;" d="M 82.132812 10.308594 L 82.132812 14.070312 L 82.292969 14.070312 C 83.238281 12.5 84.441406 11.355469 85.945312 10.652344 C 87.429688 9.945312 88.976562 9.585938 90.542969 9.585938 C 92.527344 9.585938 94.152344 9.847656 95.417969 10.390625 C 96.683594 10.933594 97.6875 11.675781 98.40625 12.640625 C 99.128906 13.609375 99.652344 14.773438 99.953125 16.144531 C 100.253906 17.511719 100.394531 19.039062 100.394531 20.710938 L 100.394531 37.328125 L 92.988281 37.328125 L 92.988281 22.078125 C 92.988281 19.84375 92.648438 18.195312 91.945312 17.089844 C 91.246094 15.980469 90.019531 15.4375 88.253906 15.4375 C 86.246094 15.4375 84.78125 16.042969 83.878906 17.25 C 82.976562 18.457031 82.515625 20.429688 82.515625 23.183594 L 82.515625 37.347656 L 75.109375 37.347656 L 75.109375 10.308594 Z M 82.132812 10.308594 "/>
<path style=" stroke:none;fill-rule:nonzero;fill:rgb(6.666667%,7.843137%,8.235294%);fill-opacity:1;" d="M 122.527344 33.867188 C 121.664062 35.335938 120.523438 36.382812 119.117188 37.027344 C 117.710938 37.671875 116.128906 37.992188 114.339844 37.992188 C 112.335938 37.992188 110.546875 37.609375 109.023438 36.824219 C 107.5 36.042969 106.234375 34.976562 105.25 33.648438 C 104.265625 32.300781 103.503906 30.769531 103.003906 29.019531 C 102.5 27.269531 102.242188 25.457031 102.242188 23.585938 C 102.242188 21.777344 102.5 20.027344 103.003906 18.335938 C 103.503906 16.644531 104.246094 15.15625 105.25 13.871094 C 106.234375 12.582031 107.476562 11.535156 108.984375 10.75 C 110.46875 9.964844 112.214844 9.585938 114.199219 9.585938 C 115.804688 9.585938 117.3125 9.925781 118.753906 10.609375 C 120.199219 11.292969 121.34375 12.300781 122.167969 13.609375 L 122.265625 13.609375 L 122.265625 0.0078125 L 129.671875 0.0078125 L 129.671875 37.308594 L 122.628906 37.308594 L 122.628906 33.867188 Z M 122.207031 20.507812 C 122.007812 19.484375 121.644531 18.578125 121.144531 17.792969 C 120.640625 17.007812 119.980469 16.363281 119.199219 15.882812 C 118.394531 15.398438 117.390625 15.15625 116.167969 15.15625 C 114.941406 15.15625 113.917969 15.398438 113.097656 15.882812 C 112.253906 16.363281 111.59375 17.007812 111.089844 17.8125 C 110.589844 18.617188 110.226562 19.523438 109.988281 20.550781 C 109.765625 21.574219 109.644531 22.640625 109.644531 23.769531 C 109.644531 24.816406 109.765625 25.859375 110.007812 26.90625 C 110.246094 27.953125 110.648438 28.878906 111.171875 29.703125 C 111.710938 30.527344 112.394531 31.191406 113.199219 31.695312 C 114.019531 32.199219 115.003906 32.460938 116.148438 32.460938 C 117.371094 32.460938 118.375 32.21875 119.199219 31.734375 C 120.019531 31.253906 120.664062 30.589844 121.144531 29.785156 C 121.625 28.960938 121.988281 28.035156 122.1875 26.988281 C 122.386719 25.941406 122.507812 24.855469 122.507812 23.75 C 122.527344 22.621094 122.429688 21.554688 122.207031 20.507812 Z M 122.207031 20.507812 "/>
<path style=" stroke:none;fill-rule:nonzero;fill:rgb(100%,12.941176%,15.294118%);fill-opacity:1;" d="M 139.664062 10.308594 L 139.664062 15.316406 L 139.765625 15.316406 C 140.105469 14.472656 140.589844 13.707031 141.171875 12.984375 C 141.753906 12.28125 142.433594 11.65625 143.199219 11.152344 C 143.960938 10.652344 144.78125 10.25 145.644531 9.988281 C 146.507812 9.703125 147.410156 9.5625 148.355469 9.5625 C 148.835938 9.5625 149.378906 9.644531 149.980469 9.824219 L 149.980469 16.726562 C 149.640625 16.667969 149.21875 16.605469 148.734375 16.546875 C 148.253906 16.484375 147.773438 16.464844 147.332031 16.464844 C 145.964844 16.464844 144.824219 16.6875 143.898438 17.148438 C 142.957031 17.613281 142.214844 18.214844 141.632812 19 C 141.050781 19.785156 140.648438 20.691406 140.40625 21.734375 C 140.167969 22.78125 140.046875 23.910156 140.046875 25.136719 L 140.046875 37.308594 L 132.640625 37.308594 L 132.640625 10.308594 Z M 139.664062 10.308594 "/>
</g>
</svg>
